<svg xmlns="http://www.w3.org/2000/svg" xmlns:xlink="http://www.w3.org/1999/xlink" width="600" height="400" viewBox="0 0 2400 1600">
<defs>
  <clipPath id="clip870">
    <rect x="0" y="0" width="2400" height="1600"></rect>
  </clipPath>
</defs>
<path clip-path="url(#clip870)" d="M0 1600 L2400 1600 L2400 0 L0 0  Z" fill="#ffffff" fill-rule="evenodd" fill-opacity="1"></path>
<defs>
  <clipPath id="clip871">
    <rect x="480" y="0" width="1681" height="1600"></rect>
  </clipPath>
</defs>
<defs>
  <clipPath id="clip872">
    <rect x="209" y="47" width="2145" height="1440"></rect>
  </clipPath>
</defs>
<path clip-path="url(#clip870)" d="M234.125 1423.18 L2352.76 1423.18 L2352.76 123.472 L234.125 123.472  Z" fill="#ffffff" fill-rule="evenodd" fill-opacity="1"></path>
<defs>
  <clipPath id="clip873">
    <rect x="234" y="123" width="2120" height="1301"></rect>
  </clipPath>
</defs>
<polyline clip-path="url(#clip873)" style="stroke:#000000; stroke-linecap:round; stroke-linejoin:round; stroke-width:2; stroke-opacity:0.1; fill:none" points="234.125,1423.18 234.125,123.472 "></polyline>
<polyline clip-path="url(#clip873)" style="stroke:#000000; stroke-linecap:round; stroke-linejoin:round; stroke-width:2; stroke-opacity:0.1; fill:none" points="657.852,1423.18 657.852,123.472 "></polyline>
<polyline clip-path="url(#clip873)" style="stroke:#000000; stroke-linecap:round; stroke-linejoin:round; stroke-width:2; stroke-opacity:0.1; fill:none" points="1081.58,1423.18 1081.58,123.472 "></polyline>
<polyline clip-path="url(#clip873)" style="stroke:#000000; stroke-linecap:round; stroke-linejoin:round; stroke-width:2; stroke-opacity:0.1; fill:none" points="1505.3,1423.18 1505.3,123.472 "></polyline>
<polyline clip-path="url(#clip873)" style="stroke:#000000; stroke-linecap:round; stroke-linejoin:round; stroke-width:2; stroke-opacity:0.1; fill:none" points="1929.03,1423.18 1929.03,123.472 "></polyline>
<polyline clip-path="url(#clip873)" style="stroke:#000000; stroke-linecap:round; stroke-linejoin:round; stroke-width:2; stroke-opacity:0.1; fill:none" points="2352.76,1423.18 2352.76,123.472 "></polyline>
<polyline clip-path="url(#clip870)" style="stroke:#000000; stroke-linecap:round; stroke-linejoin:round; stroke-width:4; stroke-opacity:1; fill:none" points="234.125,1423.18 2352.76,1423.18 "></polyline>
<polyline clip-path="url(#clip870)" style="stroke:#000000; stroke-linecap:round; stroke-linejoin:round; stroke-width:4; stroke-opacity:1; fill:none" points="234.125,1423.18 234.125,1404.28 "></polyline>
<polyline clip-path="url(#clip870)" style="stroke:#000000; stroke-linecap:round; stroke-linejoin:round; stroke-width:4; stroke-opacity:1; fill:none" points="657.852,1423.18 657.852,1404.28 "></polyline>
<polyline clip-path="url(#clip870)" style="stroke:#000000; stroke-linecap:round; stroke-linejoin:round; stroke-width:4; stroke-opacity:1; fill:none" points="1081.58,1423.18 1081.58,1404.28 "></polyline>
<polyline clip-path="url(#clip870)" style="stroke:#000000; stroke-linecap:round; stroke-linejoin:round; stroke-width:4; stroke-opacity:1; fill:none" points="1505.3,1423.18 1505.3,1404.28 "></polyline>
<polyline clip-path="url(#clip870)" style="stroke:#000000; stroke-linecap:round; stroke-linejoin:round; stroke-width:4; stroke-opacity:1; fill:none" points="1929.03,1423.18 1929.03,1404.28 "></polyline>
<polyline clip-path="url(#clip870)" style="stroke:#000000; stroke-linecap:round; stroke-linejoin:round; stroke-width:4; stroke-opacity:1; fill:none" points="2352.76,1423.18 2352.76,1404.28 "></polyline>
<path clip-path="url(#clip870)" d="M234.125 1454.1 Q230.514 1454.1 228.686 1457.66 Q226.88 1461.2 226.88 1468.33 Q226.88 1475.44 228.686 1479.01 Q230.514 1482.55 234.125 1482.55 Q237.76 1482.55 239.565 1479.01 Q241.394 1475.44 241.394 1468.33 Q241.394 1461.2 239.565 1457.66 Q237.76 1454.1 234.125 1454.1 M234.125 1450.39 Q239.936 1450.39 242.991 1455 Q246.07 1459.58 246.07 1468.33 Q246.07 1477.06 242.991 1481.67 Q239.936 1486.25 234.125 1486.25 Q228.315 1486.25 225.237 1481.67 Q222.181 1477.06 222.181 1468.33 Q222.181 1459.58 225.237 1455 Q228.315 1450.39 234.125 1450.39 Z" fill="#000000" fill-rule="nonzero" fill-opacity="1"></path><path clip-path="url(#clip870)" d="M636.625 1481.64 L652.944 1481.64 L652.944 1485.58 L631 1485.58 L631 1481.64 Q633.662 1478.89 638.245 1474.26 Q642.852 1469.61 644.032 1468.27 Q646.278 1465.74 647.157 1464.01 Q648.06 1462.25 648.06 1460.56 Q648.06 1457.8 646.115 1456.07 Q644.194 1454.33 641.092 1454.33 Q638.893 1454.33 636.44 1455.09 Q634.009 1455.86 631.231 1457.41 L631.231 1452.69 Q634.055 1451.55 636.509 1450.97 Q638.963 1450.39 641 1450.39 Q646.37 1450.39 649.565 1453.08 Q652.759 1455.77 652.759 1460.26 Q652.759 1462.39 651.949 1464.31 Q651.162 1466.2 649.055 1468.8 Q648.477 1469.47 645.375 1472.69 Q642.273 1475.88 636.625 1481.64 Z" fill="#000000" fill-rule="nonzero" fill-opacity="1"></path><path clip-path="url(#clip870)" d="M672.759 1454.1 Q669.148 1454.1 667.319 1457.66 Q665.514 1461.2 665.514 1468.33 Q665.514 1475.44 667.319 1479.01 Q669.148 1482.55 672.759 1482.55 Q676.393 1482.55 678.199 1479.01 Q680.027 1475.44 680.027 1468.33 Q680.027 1461.2 678.199 1457.66 Q676.393 1454.1 672.759 1454.1 M672.759 1450.39 Q678.569 1450.39 681.625 1455 Q684.703 1459.58 684.703 1468.33 Q684.703 1477.06 681.625 1481.67 Q678.569 1486.25 672.759 1486.25 Q666.949 1486.25 663.87 1481.67 Q660.814 1477.06 660.814 1468.33 Q660.814 1459.58 663.87 1455 Q666.949 1450.39 672.759 1450.39 Z" fill="#000000" fill-rule="nonzero" fill-opacity="1"></path><path clip-path="url(#clip870)" d="M1069.75 1455.09 L1057.94 1473.54 L1069.75 1473.54 L1069.75 1455.09 M1068.52 1451.02 L1074.4 1451.02 L1074.4 1473.54 L1079.33 1473.54 L1079.33 1477.43 L1074.4 1477.43 L1074.4 1485.58 L1069.75 1485.58 L1069.75 1477.43 L1054.15 1477.43 L1054.15 1472.92 L1068.52 1451.02 Z" fill="#000000" fill-rule="nonzero" fill-opacity="1"></path><path clip-path="url(#clip870)" d="M1097.06 1454.1 Q1093.45 1454.1 1091.62 1457.66 Q1089.82 1461.2 1089.82 1468.33 Q1089.82 1475.44 1091.62 1479.01 Q1093.45 1482.55 1097.06 1482.55 Q1100.7 1482.55 1102.5 1479.01 Q1104.33 1475.44 1104.33 1468.33 Q1104.33 1461.2 1102.5 1457.66 Q1100.7 1454.1 1097.06 1454.1 M1097.06 1450.39 Q1102.87 1450.39 1105.93 1455 Q1109.01 1459.58 1109.01 1468.33 Q1109.01 1477.06 1105.93 1481.67 Q1102.87 1486.25 1097.06 1486.25 Q1091.25 1486.25 1088.17 1481.67 Q1085.12 1477.06 1085.12 1468.33 Q1085.12 1459.58 1088.17 1455 Q1091.25 1450.39 1097.06 1450.39 Z" fill="#000000" fill-rule="nonzero" fill-opacity="1"></path><path clip-path="url(#clip870)" d="M1490.71 1466.44 Q1487.56 1466.44 1485.71 1468.59 Q1483.88 1470.74 1483.88 1474.49 Q1483.88 1478.22 1485.71 1480.39 Q1487.56 1482.55 1490.71 1482.55 Q1493.86 1482.55 1495.69 1480.39 Q1497.54 1478.22 1497.54 1474.49 Q1497.54 1470.74 1495.69 1468.59 Q1493.86 1466.44 1490.71 1466.44 M1499.99 1451.78 L1499.99 1456.04 Q1498.23 1455.21 1496.43 1454.77 Q1494.64 1454.33 1492.88 1454.33 Q1488.26 1454.33 1485.8 1457.45 Q1483.37 1460.58 1483.02 1466.9 Q1484.39 1464.89 1486.45 1463.82 Q1488.51 1462.73 1490.99 1462.73 Q1496.19 1462.73 1499.2 1465.9 Q1502.24 1469.05 1502.24 1474.49 Q1502.24 1479.82 1499.09 1483.03 Q1495.94 1486.25 1490.71 1486.25 Q1484.71 1486.25 1481.54 1481.67 Q1478.37 1477.06 1478.37 1468.33 Q1478.37 1460.14 1482.26 1455.28 Q1486.15 1450.39 1492.7 1450.39 Q1494.46 1450.39 1496.24 1450.74 Q1498.05 1451.09 1499.99 1451.78 Z" fill="#000000" fill-rule="nonzero" fill-opacity="1"></path><path clip-path="url(#clip870)" d="M1520.29 1454.1 Q1516.68 1454.1 1514.85 1457.66 Q1513.05 1461.2 1513.05 1468.33 Q1513.05 1475.44 1514.85 1479.01 Q1516.68 1482.55 1520.29 1482.55 Q1523.93 1482.55 1525.73 1479.01 Q1527.56 1475.44 1527.56 1468.33 Q1527.56 1461.2 1525.73 1457.66 Q1523.93 1454.1 1520.29 1454.1 M1520.29 1450.39 Q1526.1 1450.39 1529.16 1455 Q1532.24 1459.58 1532.24 1468.33 Q1532.24 1477.06 1529.16 1481.67 Q1526.1 1486.25 1520.29 1486.25 Q1514.48 1486.25 1511.4 1481.67 Q1508.35 1477.06 1508.35 1468.33 Q1508.35 1459.58 1511.4 1455 Q1514.48 1450.39 1520.29 1450.39 Z" fill="#000000" fill-rule="nonzero" fill-opacity="1"></path><path clip-path="url(#clip870)" d="M1913.9 1469.17 Q1910.57 1469.17 1908.65 1470.95 Q1906.75 1472.73 1906.75 1475.86 Q1906.75 1478.98 1908.65 1480.77 Q1910.57 1482.55 1913.9 1482.55 Q1917.24 1482.55 1919.16 1480.77 Q1921.08 1478.96 1921.08 1475.86 Q1921.08 1472.73 1919.16 1470.95 Q1917.26 1469.17 1913.9 1469.17 M1909.23 1467.18 Q1906.22 1466.44 1904.53 1464.38 Q1902.86 1462.32 1902.86 1459.35 Q1902.86 1455.21 1905.8 1452.8 Q1908.76 1450.39 1913.9 1450.39 Q1919.06 1450.39 1922 1452.8 Q1924.94 1455.21 1924.94 1459.35 Q1924.94 1462.32 1923.25 1464.38 Q1921.59 1466.44 1918.6 1467.18 Q1921.98 1467.96 1923.86 1470.26 Q1925.75 1472.55 1925.75 1475.86 Q1925.75 1480.88 1922.68 1483.57 Q1919.62 1486.25 1913.9 1486.25 Q1908.19 1486.25 1905.11 1483.57 Q1902.05 1480.88 1902.05 1475.86 Q1902.05 1472.55 1903.95 1470.26 Q1905.85 1467.96 1909.23 1467.18 M1907.51 1459.79 Q1907.51 1462.48 1909.18 1463.98 Q1910.87 1465.49 1913.9 1465.49 Q1916.91 1465.49 1918.6 1463.98 Q1920.31 1462.48 1920.31 1459.79 Q1920.31 1457.11 1918.6 1455.6 Q1916.91 1454.1 1913.9 1454.1 Q1910.87 1454.1 1909.18 1455.6 Q1907.51 1457.11 1907.51 1459.79 Z" fill="#000000" fill-rule="nonzero" fill-opacity="1"></path><path clip-path="url(#clip870)" d="M1944.06 1454.1 Q1940.45 1454.1 1938.62 1457.66 Q1936.82 1461.2 1936.82 1468.33 Q1936.82 1475.44 1938.62 1479.01 Q1940.45 1482.55 1944.06 1482.55 Q1947.7 1482.55 1949.5 1479.01 Q1951.33 1475.44 1951.33 1468.33 Q1951.33 1461.2 1949.5 1457.66 Q1947.7 1454.1 1944.06 1454.1 M1944.06 1450.39 Q1949.87 1450.39 1952.93 1455 Q1956.01 1459.58 1956.01 1468.33 Q1956.01 1477.06 1952.93 1481.67 Q1949.87 1486.25 1944.06 1486.25 Q1938.25 1486.25 1935.18 1481.67 Q1932.12 1477.06 1932.12 1468.33 Q1932.12 1459.58 1935.18 1455 Q1938.25 1450.39 1944.06 1450.39 Z" fill="#000000" fill-rule="nonzero" fill-opacity="1"></path><path clip-path="url(#clip870)" d="M2312.36 1481.64 L2320 1481.64 L2320 1455.28 L2311.69 1456.95 L2311.69 1452.69 L2319.96 1451.02 L2324.63 1451.02 L2324.63 1481.64 L2332.27 1481.64 L2332.27 1485.58 L2312.36 1485.58 L2312.36 1481.64 Z" fill="#000000" fill-rule="nonzero" fill-opacity="1"></path><path clip-path="url(#clip870)" d="M2351.71 1454.1 Q2348.1 1454.1 2346.27 1457.66 Q2344.47 1461.2 2344.47 1468.33 Q2344.47 1475.44 2346.27 1479.01 Q2348.1 1482.55 2351.71 1482.55 Q2355.35 1482.55 2357.15 1479.01 Q2358.98 1475.44 2358.98 1468.33 Q2358.98 1461.2 2357.15 1457.66 Q2355.35 1454.1 2351.71 1454.1 M2351.71 1450.39 Q2357.52 1450.39 2360.58 1455 Q2363.66 1459.58 2363.66 1468.33 Q2363.66 1477.06 2360.58 1481.67 Q2357.52 1486.25 2351.71 1486.25 Q2345.9 1486.25 2342.83 1481.67 Q2339.77 1477.06 2339.77 1468.33 Q2339.77 1459.58 2342.83 1455 Q2345.9 1450.39 2351.71 1450.39 Z" fill="#000000" fill-rule="nonzero" fill-opacity="1"></path><path clip-path="url(#clip870)" d="M2381.88 1454.1 Q2378.27 1454.1 2376.44 1457.66 Q2374.63 1461.2 2374.63 1468.33 Q2374.63 1475.44 2376.44 1479.01 Q2378.27 1482.55 2381.88 1482.55 Q2385.51 1482.55 2387.32 1479.01 Q2389.14 1475.44 2389.14 1468.33 Q2389.14 1461.2 2387.32 1457.66 Q2385.51 1454.1 2381.88 1454.1 M2381.88 1450.39 Q2387.69 1450.39 2390.74 1455 Q2393.82 1459.58 2393.82 1468.33 Q2393.82 1477.06 2390.74 1481.67 Q2387.69 1486.25 2381.88 1486.25 Q2376.07 1486.25 2372.99 1481.67 Q2369.93 1477.06 2369.93 1468.33 Q2369.93 1459.58 2372.99 1455 Q2376.07 1450.39 2381.88 1450.39 Z" fill="#000000" fill-rule="nonzero" fill-opacity="1"></path><path clip-path="url(#clip870)" d="M1295.4 1539.24 Q1297.59 1535.29 1300.65 1533.41 Q1303.71 1531.54 1307.84 1531.54 Q1313.41 1531.54 1316.44 1535.45 Q1319.46 1539.33 1319.46 1546.53 L1319.46 1568.04 L1313.57 1568.04 L1313.57 1546.72 Q1313.57 1541.59 1311.76 1539.11 Q1309.94 1536.63 1306.22 1536.63 Q1301.67 1536.63 1299.03 1539.65 Q1296.38 1542.68 1296.38 1547.9 L1296.38 1568.04 L1290.5 1568.04 L1290.5 1546.72 Q1290.5 1541.56 1288.68 1539.11 Q1286.87 1536.63 1283.08 1536.63 Q1278.59 1536.63 1275.95 1539.68 Q1273.31 1542.71 1273.31 1547.9 L1273.31 1568.04 L1267.42 1568.04 L1267.42 1532.4 L1273.31 1532.4 L1273.31 1537.93 Q1275.31 1534.66 1278.12 1533.1 Q1280.92 1531.54 1284.77 1531.54 Q1288.65 1531.54 1291.36 1533.51 Q1294.09 1535.48 1295.4 1539.24 Z" fill="#000000" fill-rule="nonzero" fill-opacity="1"></path><polyline clip-path="url(#clip873)" style="stroke:#000000; stroke-linecap:round; stroke-linejoin:round; stroke-width:2; stroke-opacity:0.1; fill:none" points="234.125,1386.4 2352.76,1386.4 "></polyline>
<polyline clip-path="url(#clip873)" style="stroke:#000000; stroke-linecap:round; stroke-linejoin:round; stroke-width:2; stroke-opacity:0.1; fill:none" points="234.125,1070.3 2352.76,1070.3 "></polyline>
<polyline clip-path="url(#clip873)" style="stroke:#000000; stroke-linecap:round; stroke-linejoin:round; stroke-width:2; stroke-opacity:0.1; fill:none" points="234.125,754.206 2352.76,754.206 "></polyline>
<polyline clip-path="url(#clip873)" style="stroke:#000000; stroke-linecap:round; stroke-linejoin:round; stroke-width:2; stroke-opacity:0.1; fill:none" points="234.125,438.111 2352.76,438.111 "></polyline>
<polyline clip-path="url(#clip870)" style="stroke:#000000; stroke-linecap:round; stroke-linejoin:round; stroke-width:4; stroke-opacity:1; fill:none" points="234.125,1423.18 234.125,123.472 "></polyline>
<polyline clip-path="url(#clip870)" style="stroke:#000000; stroke-linecap:round; stroke-linejoin:round; stroke-width:4; stroke-opacity:1; fill:none" points="234.125,1386.4 253.023,1386.4 "></polyline>
<polyline clip-path="url(#clip870)" style="stroke:#000000; stroke-linecap:round; stroke-linejoin:round; stroke-width:4; stroke-opacity:1; fill:none" points="234.125,1070.3 253.023,1070.3 "></polyline>
<polyline clip-path="url(#clip870)" style="stroke:#000000; stroke-linecap:round; stroke-linejoin:round; stroke-width:4; stroke-opacity:1; fill:none" points="234.125,754.206 253.023,754.206 "></polyline>
<polyline clip-path="url(#clip870)" style="stroke:#000000; stroke-linecap:round; stroke-linejoin:round; stroke-width:4; stroke-opacity:1; fill:none" points="234.125,438.111 253.023,438.111 "></polyline>
<path clip-path="url(#clip870)" d="M186.181 1372.19 Q182.57 1372.19 180.741 1375.76 Q178.936 1379.3 178.936 1386.43 Q178.936 1393.54 180.741 1397.1 Q182.57 1400.64 186.181 1400.64 Q189.815 1400.64 191.621 1397.1 Q193.45 1393.54 193.45 1386.43 Q193.45 1379.3 191.621 1375.76 Q189.815 1372.19 186.181 1372.19 M186.181 1368.49 Q191.991 1368.49 195.047 1373.1 Q198.125 1377.68 198.125 1386.43 Q198.125 1395.16 195.047 1399.76 Q191.991 1404.35 186.181 1404.35 Q180.371 1404.35 177.292 1399.76 Q174.237 1395.16 174.237 1386.43 Q174.237 1377.68 177.292 1373.1 Q180.371 1368.49 186.181 1368.49 Z" fill="#000000" fill-rule="nonzero" fill-opacity="1"></path><path clip-path="url(#clip870)" d="M116.668 1083.65 L124.306 1083.65 L124.306 1057.28 L115.996 1058.95 L115.996 1054.69 L124.26 1053.02 L128.936 1053.02 L128.936 1083.65 L136.575 1083.65 L136.575 1087.58 L116.668 1087.58 L116.668 1083.65 Z" fill="#000000" fill-rule="nonzero" fill-opacity="1"></path><path clip-path="url(#clip870)" d="M156.019 1056.1 Q152.408 1056.1 150.579 1059.66 Q148.774 1063.21 148.774 1070.34 Q148.774 1077.44 150.579 1081.01 Q152.408 1084.55 156.019 1084.55 Q159.653 1084.55 161.459 1081.01 Q163.288 1077.44 163.288 1070.34 Q163.288 1063.21 161.459 1059.66 Q159.653 1056.1 156.019 1056.1 M156.019 1052.4 Q161.829 1052.4 164.885 1057 Q167.964 1061.59 167.964 1070.34 Q167.964 1079.06 164.885 1083.67 Q161.829 1088.25 156.019 1088.25 Q150.209 1088.25 147.13 1083.67 Q144.075 1079.06 144.075 1070.34 Q144.075 1061.59 147.13 1057 Q150.209 1052.4 156.019 1052.4 Z" fill="#000000" fill-rule="nonzero" fill-opacity="1"></path><path clip-path="url(#clip870)" d="M186.181 1056.1 Q182.57 1056.1 180.741 1059.66 Q178.936 1063.21 178.936 1070.34 Q178.936 1077.44 180.741 1081.01 Q182.57 1084.55 186.181 1084.55 Q189.815 1084.55 191.621 1081.01 Q193.45 1077.44 193.45 1070.34 Q193.45 1063.21 191.621 1059.66 Q189.815 1056.1 186.181 1056.1 M186.181 1052.4 Q191.991 1052.4 195.047 1057 Q198.125 1061.59 198.125 1070.34 Q198.125 1079.06 195.047 1083.67 Q191.991 1088.25 186.181 1088.25 Q180.371 1088.25 177.292 1083.67 Q174.237 1079.06 174.237 1070.34 Q174.237 1061.59 177.292 1057 Q180.371 1052.4 186.181 1052.4 Z" fill="#000000" fill-rule="nonzero" fill-opacity="1"></path><path clip-path="url(#clip870)" d="M119.885 767.551 L136.204 767.551 L136.204 771.486 L114.26 771.486 L114.26 767.551 Q116.922 764.796 121.505 760.166 Q126.112 755.514 127.292 754.171 Q129.538 751.648 130.417 749.912 Q131.32 748.153 131.32 746.463 Q131.32 743.708 129.376 741.972 Q127.455 740.236 124.353 740.236 Q122.154 740.236 119.7 741 Q117.269 741.764 114.492 743.315 L114.492 738.592 Q117.316 737.458 119.769 736.879 Q122.223 736.301 124.26 736.301 Q129.63 736.301 132.825 738.986 Q136.019 741.671 136.019 746.162 Q136.019 748.291 135.209 750.213 Q134.422 752.111 132.316 754.703 Q131.737 755.375 128.635 758.592 Q125.533 761.787 119.885 767.551 Z" fill="#000000" fill-rule="nonzero" fill-opacity="1"></path><path clip-path="url(#clip870)" d="M156.019 740.004 Q152.408 740.004 150.579 743.569 Q148.774 747.111 148.774 754.24 Q148.774 761.347 150.579 764.912 Q152.408 768.453 156.019 768.453 Q159.653 768.453 161.459 764.912 Q163.288 761.347 163.288 754.24 Q163.288 747.111 161.459 743.569 Q159.653 740.004 156.019 740.004 M156.019 736.301 Q161.829 736.301 164.885 740.907 Q167.964 745.491 167.964 754.24 Q167.964 762.967 164.885 767.574 Q161.829 772.157 156.019 772.157 Q150.209 772.157 147.13 767.574 Q144.075 762.967 144.075 754.24 Q144.075 745.491 147.13 740.907 Q150.209 736.301 156.019 736.301 Z" fill="#000000" fill-rule="nonzero" fill-opacity="1"></path><path clip-path="url(#clip870)" d="M186.181 740.004 Q182.57 740.004 180.741 743.569 Q178.936 747.111 178.936 754.24 Q178.936 761.347 180.741 764.912 Q182.57 768.453 186.181 768.453 Q189.815 768.453 191.621 764.912 Q193.45 761.347 193.45 754.24 Q193.45 747.111 191.621 743.569 Q189.815 740.004 186.181 740.004 M186.181 736.301 Q191.991 736.301 195.047 740.907 Q198.125 745.491 198.125 754.24 Q198.125 762.967 195.047 767.574 Q191.991 772.157 186.181 772.157 Q180.371 772.157 177.292 767.574 Q174.237 762.967 174.237 754.24 Q174.237 745.491 177.292 740.907 Q180.371 736.301 186.181 736.301 Z" fill="#000000" fill-rule="nonzero" fill-opacity="1"></path><path clip-path="url(#clip870)" d="M130.024 436.757 Q133.38 437.474 135.255 439.743 Q137.154 442.011 137.154 445.345 Q137.154 450.46 133.635 453.261 Q130.117 456.062 123.635 456.062 Q121.459 456.062 119.144 455.622 Q116.853 455.206 114.399 454.349 L114.399 449.835 Q116.343 450.97 118.658 451.548 Q120.973 452.127 123.496 452.127 Q127.894 452.127 130.186 450.391 Q132.501 448.655 132.501 445.345 Q132.501 442.289 130.348 440.576 Q128.218 438.84 124.399 438.84 L120.371 438.84 L120.371 434.997 L124.584 434.997 Q128.033 434.997 129.862 433.632 Q131.691 432.243 131.691 429.65 Q131.691 426.988 129.792 425.576 Q127.917 424.141 124.399 424.141 Q122.478 424.141 120.279 424.558 Q118.08 424.974 115.441 425.854 L115.441 421.687 Q118.103 420.947 120.418 420.576 Q122.755 420.206 124.816 420.206 Q130.14 420.206 133.242 422.636 Q136.343 425.044 136.343 429.164 Q136.343 432.034 134.7 434.025 Q133.056 435.993 130.024 436.757 Z" fill="#000000" fill-rule="nonzero" fill-opacity="1"></path><path clip-path="url(#clip870)" d="M156.019 423.91 Q152.408 423.91 150.579 427.474 Q148.774 431.016 148.774 438.146 Q148.774 445.252 150.579 448.817 Q152.408 452.358 156.019 452.358 Q159.653 452.358 161.459 448.817 Q163.288 445.252 163.288 438.146 Q163.288 431.016 161.459 427.474 Q159.653 423.91 156.019 423.91 M156.019 420.206 Q161.829 420.206 164.885 424.812 Q167.964 429.396 167.964 438.146 Q167.964 446.872 164.885 451.479 Q161.829 456.062 156.019 456.062 Q150.209 456.062 147.13 451.479 Q144.075 446.872 144.075 438.146 Q144.075 429.396 147.13 424.812 Q150.209 420.206 156.019 420.206 Z" fill="#000000" fill-rule="nonzero" fill-opacity="1"></path><path clip-path="url(#clip870)" d="M186.181 423.91 Q182.57 423.91 180.741 427.474 Q178.936 431.016 178.936 438.146 Q178.936 445.252 180.741 448.817 Q182.57 452.358 186.181 452.358 Q189.815 452.358 191.621 448.817 Q193.45 445.252 193.45 438.146 Q193.45 431.016 191.621 427.474 Q189.815 423.91 186.181 423.91 M186.181 420.206 Q191.991 420.206 195.047 424.812 Q198.125 429.396 198.125 438.146 Q198.125 446.872 195.047 451.479 Q191.991 456.062 186.181 456.062 Q180.371 456.062 177.292 451.479 Q174.237 446.872 174.237 438.146 Q174.237 429.396 177.292 424.812 Q180.371 420.206 186.181 420.206 Z" fill="#000000" fill-rule="nonzero" fill-opacity="1"></path><path clip-path="url(#clip870)" d="M48.2384 797.118 Q48.6249 796.731 49.1724 796.731 Q49.7198 796.731 50.1063 797.118 Q50.4928 797.504 50.4928 798.051 L50.4928 839.339 Q50.4928 839.887 50.1063 840.273 Q49.7198 840.66 49.1724 840.66 Q48.6249 840.66 48.2384 840.273 Q47.8519 839.887 47.8519 839.339 L47.8519 798.051 Q47.8519 797.504 48.2384 797.118 Z" fill="#000000" fill-rule="nonzero" fill-opacity="1"></path><path clip-path="url(#clip870)" d="M65.7262 757.221 Q66.3381 757.221 66.4025 757.93 L66.4025 759.379 Q66.4025 760.86 66.177 761.504 Q65.9516 762.149 64.921 762.889 Q64.2769 763.34 61.2818 764.467 Q58.2544 765.562 53.6812 767.173 Q49.1079 768.751 46.4026 769.814 L65.1465 785.691 Q66.5313 786.786 66.5313 787.881 Q66.5313 788.686 65.9838 789.266 Q65.4363 789.846 64.599 789.846 Q63.987 789.846 63.6328 789.62 Q63.2785 789.362 62.57 788.686 L44.5025 770.458 L26.5638 776.867 Q23.2466 778.09 22.4093 778.799 Q21.5719 779.475 21.2821 781.15 Q21.121 781.762 20.6058 781.762 Q19.8972 781.762 19.8972 780.57 Q19.8972 774.194 24.5671 772.519 L62.0869 759.057 Q64.2447 758.316 65.1465 757.543 Q65.5651 757.221 65.7262 757.221 Z" fill="#000000" fill-rule="nonzero" fill-opacity="1"></path><path clip-path="url(#clip870)" d="M72.0432 712.664 Q72.2236 712.664 72.9224 712.867 Q73.6213 713.07 74.7034 713.566 Q75.7855 714.039 76.7775 714.716 Q77.7469 715.369 78.4683 716.451 Q79.1671 717.511 79.1671 718.728 Q79.1671 720.352 78.085 721.434 Q77.0029 722.516 75.3797 722.516 Q74.5005 722.516 72.8322 721.907 Q65.2123 719.044 62.4845 719.044 Q59.2607 719.044 59.2607 721.546 Q59.2607 722.967 59.8468 724.252 Q60.433 725.537 61.2446 726.371 Q62.0562 727.205 62.9805 727.859 Q63.9048 728.513 64.5135 728.806 Q65.1222 729.076 65.3927 729.144 L76.5295 731.917 Q77.4763 732.142 77.9272 732.3 Q78.3781 732.458 78.7613 732.886 Q79.1671 733.314 79.1671 733.991 Q79.1671 734.554 78.829 734.96 Q78.4908 735.343 77.9047 735.343 Q77.8145 735.343 77.3411 735.231 Q76.8676 735.118 76.2139 734.96 Q75.5601 734.802 75.1768 734.735 Q72.1108 733.923 71.6825 733.81 L66.317 732.525 Q63.6568 731.827 62.4845 731.827 Q59.2607 731.827 59.2607 734.329 Q59.2607 735.569 59.7341 736.741 Q60.185 737.891 60.8162 738.68 Q61.4475 739.469 62.3267 740.19 Q63.1834 740.889 63.7695 741.25 Q64.3331 741.588 64.8967 741.859 L67.1962 742.445 Q67.8275 742.58 70.2848 743.234 L74.4554 744.248 Q77.5665 744.97 77.8596 745.128 Q78.4908 745.353 78.829 745.849 Q79.1671 746.345 79.1671 746.841 Q79.1671 747.405 78.829 747.788 Q78.4908 748.171 77.9047 748.171 Q77.8145 748.171 77.4763 748.103 Q77.1382 748.036 76.6647 747.923 Q76.1913 747.81 75.9208 747.765 L65.2574 745.082 Q63.3186 744.586 62.7099 744.474 Q62.0787 744.339 61.3798 744.339 Q59.2607 744.339 59.2607 745.781 Q59.2607 746.954 60.6584 747.72 Q62.0562 748.487 64.7615 749.14 Q65.5054 749.343 65.6632 749.479 Q65.821 749.591 65.821 749.929 Q65.7985 750.493 65.3476 750.493 Q65.2349 750.493 64.5135 750.313 Q63.7921 750.132 62.7099 749.794 Q61.6053 749.433 60.8839 749.05 Q60.4104 748.825 60.0948 748.622 Q59.7792 748.419 59.2832 748.013 Q58.7873 747.607 58.5167 746.999 Q58.2462 746.39 58.2462 745.646 Q58.2462 744 59.3058 742.783 Q60.3654 741.543 62.2591 741.385 Q58.2462 738.387 58.2462 734.194 Q58.2462 731.827 59.4411 730.406 Q60.5908 729.076 62.7099 728.918 Q58.2462 725.807 58.2462 721.389 Q58.2462 718.841 59.5763 717.466 Q60.8839 716.091 63.1834 716.091 Q64.3782 716.091 66.6552 716.699 Q68.9096 717.308 70.0368 717.714 Q71.164 718.12 73.3282 718.909 Q75.4023 719.743 76.6197 719.743 Q77.4087 719.743 77.7694 719.472 Q78.1301 719.202 78.1301 718.616 Q78.1301 717.714 77.6116 716.925 Q77.0705 716.136 76.1913 715.572 Q75.2896 714.986 74.3878 714.603 Q73.4635 714.22 72.4265 713.927 Q71.8629 713.746 71.7276 713.656 Q71.5923 713.543 71.5923 713.228 Q71.5923 712.664 72.0432 712.664 Z" fill="#000000" fill-rule="nonzero" fill-opacity="1"></path><path clip-path="url(#clip870)" d="M1118.64 12.096 L1169.81 12.096 L1169.81 18.9825 L1148.34 18.9825 L1148.34 72.576 L1140.11 72.576 L1140.11 18.9825 L1118.64 18.9825 L1118.64 12.096 Z" fill="#000000" fill-rule="nonzero" fill-opacity="1"></path><path clip-path="url(#clip870)" d="M1204.73 34.9026 L1256.66 34.9026 L1256.66 41.7081 L1204.73 41.7081 L1204.73 34.9026 M1204.73 51.4303 L1256.66 51.4303 L1256.66 58.3168 L1204.73 58.3168 L1204.73 51.4303 Z" fill="#000000" fill-rule="nonzero" fill-opacity="1"></path><path clip-path="url(#clip870)" d="M1318.19 17.4837 Q1311.87 17.4837 1308.67 23.7221 Q1305.51 29.92 1305.51 42.3968 Q1305.51 54.833 1308.67 61.0714 Q1311.87 67.2693 1318.19 67.2693 Q1324.55 67.2693 1327.71 61.0714 Q1330.91 54.833 1330.91 42.3968 Q1330.91 29.92 1327.71 23.7221 Q1324.55 17.4837 1318.19 17.4837 M1318.19 11.0023 Q1328.36 11.0023 1333.71 19.0636 Q1339.09 27.0843 1339.09 42.3968 Q1339.09 57.6687 1333.71 65.73 Q1328.36 73.7508 1318.19 73.7508 Q1308.02 73.7508 1302.64 65.73 Q1297.29 57.6687 1297.29 42.3968 Q1297.29 27.0843 1302.64 19.0636 Q1308.02 11.0023 1318.19 11.0023 Z" fill="#000000" fill-rule="nonzero" fill-opacity="1"></path><path clip-path="url(#clip870)" d="M1353.48 62.2867 L1362.02 62.2867 L1362.02 72.576 L1353.48 72.576 L1353.48 62.2867 Z" fill="#000000" fill-rule="nonzero" fill-opacity="1"></path><path clip-path="url(#clip870)" d="M1397.35 17.4837 Q1391.03 17.4837 1387.83 23.7221 Q1384.67 29.92 1384.67 42.3968 Q1384.67 54.833 1387.83 61.0714 Q1391.03 67.2693 1397.35 67.2693 Q1403.71 67.2693 1406.87 61.0714 Q1410.07 54.833 1410.07 42.3968 Q1410.07 29.92 1406.87 23.7221 Q1403.71 17.4837 1397.35 17.4837 M1397.35 11.0023 Q1407.51 11.0023 1412.86 19.0636 Q1418.25 27.0843 1418.25 42.3968 Q1418.25 57.6687 1412.86 65.73 Q1407.51 73.7508 1397.35 73.7508 Q1387.18 73.7508 1381.79 65.73 Q1376.44 57.6687 1376.44 42.3968 Q1376.44 27.0843 1381.79 19.0636 Q1387.18 11.0023 1397.35 11.0023 Z" fill="#000000" fill-rule="nonzero" fill-opacity="1"></path><path clip-path="url(#clip870)" d="M1439.68 65.6895 L1468.24 65.6895 L1468.24 72.576 L1429.83 72.576 L1429.83 65.6895 Q1434.49 60.8689 1442.51 52.7671 Q1450.58 44.6248 1452.64 42.2752 Q1456.57 37.8598 1458.11 34.8216 Q1459.69 31.7429 1459.69 28.7857 Q1459.69 23.9651 1456.29 20.927 Q1452.92 17.8888 1447.5 17.8888 Q1443.65 17.8888 1439.35 19.2256 Q1435.1 20.5624 1430.24 23.2765 L1430.24 15.0127 Q1435.18 13.0277 1439.48 12.015 Q1443.77 11.0023 1447.33 11.0023 Q1456.73 11.0023 1462.32 15.7013 Q1467.91 20.4004 1467.91 28.2591 Q1467.91 31.9859 1466.5 35.3482 Q1465.12 38.6699 1461.43 43.2069 Q1460.42 44.3817 1454.99 50.0125 Q1449.56 55.6027 1439.68 65.6895 Z" fill="#000000" fill-rule="nonzero" fill-opacity="1"></path><circle clip-path="url(#clip873)" cx="255.312" cy="1355.07" r="14.4" fill="#009af9" fill-rule="evenodd" fill-opacity="1" stroke="#000000" stroke-opacity="1" stroke-width="3.2"></circle>
<circle clip-path="url(#clip873)" cx="297.684" cy="1237.48" r="14.4" fill="#009af9" fill-rule="evenodd" fill-opacity="1" stroke="#000000" stroke-opacity="1" stroke-width="3.2"></circle>
<circle clip-path="url(#clip873)" cx="340.057" cy="1141.81" r="14.4" fill="#009af9" fill-rule="evenodd" fill-opacity="1" stroke="#000000" stroke-opacity="1" stroke-width="3.2"></circle>
<circle clip-path="url(#clip873)" cx="424.802" cy="974.12" r="14.4" fill="#009af9" fill-rule="evenodd" fill-opacity="1" stroke="#000000" stroke-opacity="1" stroke-width="3.2"></circle>
<circle clip-path="url(#clip873)" cx="467.175" cy="914.155" r="14.4" fill="#009af9" fill-rule="evenodd" fill-opacity="1" stroke="#000000" stroke-opacity="1" stroke-width="3.2"></circle>
<circle clip-path="url(#clip873)" cx="551.92" cy="824.176" r="14.4" fill="#009af9" fill-rule="evenodd" fill-opacity="1" stroke="#000000" stroke-opacity="1" stroke-width="3.2"></circle>
<circle clip-path="url(#clip873)" cx="594.293" cy="779.172" r="14.4" fill="#009af9" fill-rule="evenodd" fill-opacity="1" stroke="#000000" stroke-opacity="1" stroke-width="3.2"></circle>
<circle clip-path="url(#clip873)" cx="679.038" cy="702.542" r="14.4" fill="#009af9" fill-rule="evenodd" fill-opacity="1" stroke="#000000" stroke-opacity="1" stroke-width="3.2"></circle>
<circle clip-path="url(#clip873)" cx="721.41" cy="670.343" r="14.4" fill="#009af9" fill-rule="evenodd" fill-opacity="1" stroke="#000000" stroke-opacity="1" stroke-width="3.2"></circle>
<circle clip-path="url(#clip873)" cx="848.528" cy="585.794" r="14.4" fill="#009af9" fill-rule="evenodd" fill-opacity="1" stroke="#000000" stroke-opacity="1" stroke-width="3.2"></circle>
<circle clip-path="url(#clip873)" cx="933.273" cy="539.75" r="14.4" fill="#009af9" fill-rule="evenodd" fill-opacity="1" stroke="#000000" stroke-opacity="1" stroke-width="3.2"></circle>
<circle clip-path="url(#clip873)" cx="1102.76" cy="461.79" r="14.4" fill="#009af9" fill-rule="evenodd" fill-opacity="1" stroke="#000000" stroke-opacity="1" stroke-width="3.2"></circle>
<circle clip-path="url(#clip873)" cx="1187.51" cy="430.816" r="14.4" fill="#009af9" fill-rule="evenodd" fill-opacity="1" stroke="#000000" stroke-opacity="1" stroke-width="3.2"></circle>
<circle clip-path="url(#clip873)" cx="1229.88" cy="417.487" r="14.4" fill="#009af9" fill-rule="evenodd" fill-opacity="1" stroke="#000000" stroke-opacity="1" stroke-width="3.2"></circle>
<circle clip-path="url(#clip873)" cx="1272.25" cy="404.482" r="14.4" fill="#009af9" fill-rule="evenodd" fill-opacity="1" stroke="#000000" stroke-opacity="1" stroke-width="3.2"></circle>
<circle clip-path="url(#clip873)" cx="1314.63" cy="392.611" r="14.4" fill="#009af9" fill-rule="evenodd" fill-opacity="1" stroke="#000000" stroke-opacity="1" stroke-width="3.2"></circle>
<circle clip-path="url(#clip873)" cx="1484.12" cy="352.898" r="14.4" fill="#009af9" fill-rule="evenodd" fill-opacity="1" stroke="#000000" stroke-opacity="1" stroke-width="3.2"></circle>
<circle clip-path="url(#clip873)" cx="1526.49" cy="344.098" r="14.4" fill="#009af9" fill-rule="evenodd" fill-opacity="1" stroke="#000000" stroke-opacity="1" stroke-width="3.2"></circle>
<circle clip-path="url(#clip873)" cx="1568.86" cy="335.645" r="14.4" fill="#009af9" fill-rule="evenodd" fill-opacity="1" stroke="#000000" stroke-opacity="1" stroke-width="3.2"></circle>
<circle clip-path="url(#clip873)" cx="1653.61" cy="319.686" r="14.4" fill="#009af9" fill-rule="evenodd" fill-opacity="1" stroke="#000000" stroke-opacity="1" stroke-width="3.2"></circle>
<circle clip-path="url(#clip873)" cx="1695.98" cy="312.209" r="14.4" fill="#009af9" fill-rule="evenodd" fill-opacity="1" stroke="#000000" stroke-opacity="1" stroke-width="3.2"></circle>
<circle clip-path="url(#clip873)" cx="1780.73" cy="298.188" r="14.4" fill="#009af9" fill-rule="evenodd" fill-opacity="1" stroke="#000000" stroke-opacity="1" stroke-width="3.2"></circle>
<circle clip-path="url(#clip873)" cx="1823.1" cy="291.439" r="14.4" fill="#009af9" fill-rule="evenodd" fill-opacity="1" stroke="#000000" stroke-opacity="1" stroke-width="3.2"></circle>
<circle clip-path="url(#clip873)" cx="1865.47" cy="284.974" r="14.4" fill="#009af9" fill-rule="evenodd" fill-opacity="1" stroke="#000000" stroke-opacity="1" stroke-width="3.2"></circle>
<circle clip-path="url(#clip873)" cx="1950.22" cy="273.24" r="14.4" fill="#009af9" fill-rule="evenodd" fill-opacity="1" stroke="#000000" stroke-opacity="1" stroke-width="3.2"></circle>
<circle clip-path="url(#clip873)" cx="1992.59" cy="267.883" r="14.4" fill="#009af9" fill-rule="evenodd" fill-opacity="1" stroke="#000000" stroke-opacity="1" stroke-width="3.2"></circle>
<circle clip-path="url(#clip873)" cx="2034.96" cy="262.871" r="14.4" fill="#009af9" fill-rule="evenodd" fill-opacity="1" stroke="#000000" stroke-opacity="1" stroke-width="3.2"></circle>
<circle clip-path="url(#clip873)" cx="2077.33" cy="258.22" r="14.4" fill="#009af9" fill-rule="evenodd" fill-opacity="1" stroke="#000000" stroke-opacity="1" stroke-width="3.2"></circle>
<circle clip-path="url(#clip873)" cx="2119.71" cy="253.869" r="14.4" fill="#009af9" fill-rule="evenodd" fill-opacity="1" stroke="#000000" stroke-opacity="1" stroke-width="3.2"></circle>
<circle clip-path="url(#clip873)" cx="2162.08" cy="249.696" r="14.4" fill="#009af9" fill-rule="evenodd" fill-opacity="1" stroke="#000000" stroke-opacity="1" stroke-width="3.2"></circle>
<circle clip-path="url(#clip873)" cx="2204.45" cy="245.62" r="14.4" fill="#009af9" fill-rule="evenodd" fill-opacity="1" stroke="#000000" stroke-opacity="1" stroke-width="3.2"></circle>
<circle clip-path="url(#clip873)" cx="2246.82" cy="241.625" r="14.4" fill="#009af9" fill-rule="evenodd" fill-opacity="1" stroke="#000000" stroke-opacity="1" stroke-width="3.2"></circle>
<circle clip-path="url(#clip873)" cx="234.125" cy="1386.4" r="14.4" fill="#e26f46" fill-rule="evenodd" fill-opacity="1" stroke="#000000" stroke-opacity="1" stroke-width="3.2"></circle>
<circle clip-path="url(#clip873)" cx="276.498" cy="795.433" r="14.4" fill="#e26f46" fill-rule="evenodd" fill-opacity="1" stroke="#000000" stroke-opacity="1" stroke-width="3.2"></circle>
<circle clip-path="url(#clip873)" cx="445.988" cy="618.072" r="14.4" fill="#e26f46" fill-rule="evenodd" fill-opacity="1" stroke="#000000" stroke-opacity="1" stroke-width="3.2"></circle>
<circle clip-path="url(#clip873)" cx="445.988" cy="617.943" r="14.4" fill="#e26f46" fill-rule="evenodd" fill-opacity="1" stroke="#000000" stroke-opacity="1" stroke-width="3.2"></circle>
<circle clip-path="url(#clip873)" cx="488.361" cy="615.726" r="14.4" fill="#e26f46" fill-rule="evenodd" fill-opacity="1" stroke="#000000" stroke-opacity="1" stroke-width="3.2"></circle>
<circle clip-path="url(#clip873)" cx="530.734" cy="603.597" r="14.4" fill="#e26f46" fill-rule="evenodd" fill-opacity="1" stroke="#000000" stroke-opacity="1" stroke-width="3.2"></circle>
<circle clip-path="url(#clip873)" cx="403.616" cy="597.136" r="14.4" fill="#e26f46" fill-rule="evenodd" fill-opacity="1" stroke="#000000" stroke-opacity="1" stroke-width="3.2"></circle>
<circle clip-path="url(#clip873)" cx="573.106" cy="591.394" r="14.4" fill="#e26f46" fill-rule="evenodd" fill-opacity="1" stroke="#000000" stroke-opacity="1" stroke-width="3.2"></circle>
<circle clip-path="url(#clip873)" cx="615.479" cy="578.29" r="14.4" fill="#e26f46" fill-rule="evenodd" fill-opacity="1" stroke="#000000" stroke-opacity="1" stroke-width="3.2"></circle>
<circle clip-path="url(#clip873)" cx="361.243" cy="569.78" r="14.4" fill="#e26f46" fill-rule="evenodd" fill-opacity="1" stroke="#000000" stroke-opacity="1" stroke-width="3.2"></circle>
<circle clip-path="url(#clip873)" cx="657.852" cy="561.448" r="14.4" fill="#e26f46" fill-rule="evenodd" fill-opacity="1" stroke="#000000" stroke-opacity="1" stroke-width="3.2"></circle>
<circle clip-path="url(#clip873)" cx="700.224" cy="543.529" r="14.4" fill="#e26f46" fill-rule="evenodd" fill-opacity="1" stroke="#000000" stroke-opacity="1" stroke-width="3.2"></circle>
<circle clip-path="url(#clip873)" cx="700.224" cy="543.523" r="14.4" fill="#e26f46" fill-rule="evenodd" fill-opacity="1" stroke="#000000" stroke-opacity="1" stroke-width="3.2"></circle>
<circle clip-path="url(#clip873)" cx="784.969" cy="512.204" r="14.4" fill="#e26f46" fill-rule="evenodd" fill-opacity="1" stroke="#000000" stroke-opacity="1" stroke-width="3.2"></circle>
<circle clip-path="url(#clip873)" cx="827.342" cy="498.525" r="14.4" fill="#e26f46" fill-rule="evenodd" fill-opacity="1" stroke="#000000" stroke-opacity="1" stroke-width="3.2"></circle>
<circle clip-path="url(#clip873)" cx="827.342" cy="498.338" r="14.4" fill="#e26f46" fill-rule="evenodd" fill-opacity="1" stroke="#000000" stroke-opacity="1" stroke-width="3.2"></circle>
<circle clip-path="url(#clip873)" cx="869.715" cy="484.99" r="14.4" fill="#e26f46" fill-rule="evenodd" fill-opacity="1" stroke="#000000" stroke-opacity="1" stroke-width="3.2"></circle>
<circle clip-path="url(#clip873)" cx="912.087" cy="471.743" r="14.4" fill="#e26f46" fill-rule="evenodd" fill-opacity="1" stroke="#000000" stroke-opacity="1" stroke-width="3.2"></circle>
<circle clip-path="url(#clip873)" cx="912.087" cy="471.586" r="14.4" fill="#e26f46" fill-rule="evenodd" fill-opacity="1" stroke="#000000" stroke-opacity="1" stroke-width="3.2"></circle>
<circle clip-path="url(#clip873)" cx="954.46" cy="459.525" r="14.4" fill="#e26f46" fill-rule="evenodd" fill-opacity="1" stroke="#000000" stroke-opacity="1" stroke-width="3.2"></circle>
<circle clip-path="url(#clip873)" cx="954.46" cy="459.417" r="14.4" fill="#e26f46" fill-rule="evenodd" fill-opacity="1" stroke="#000000" stroke-opacity="1" stroke-width="3.2"></circle>
<circle clip-path="url(#clip873)" cx="996.832" cy="448.713" r="14.4" fill="#e26f46" fill-rule="evenodd" fill-opacity="1" stroke="#000000" stroke-opacity="1" stroke-width="3.2"></circle>
<circle clip-path="url(#clip873)" cx="1039.21" cy="438.168" r="14.4" fill="#e26f46" fill-rule="evenodd" fill-opacity="1" stroke="#000000" stroke-opacity="1" stroke-width="3.2"></circle>
<circle clip-path="url(#clip873)" cx="1081.58" cy="426.824" r="14.4" fill="#e26f46" fill-rule="evenodd" fill-opacity="1" stroke="#000000" stroke-opacity="1" stroke-width="3.2"></circle>
<circle clip-path="url(#clip873)" cx="1123.95" cy="416.685" r="14.4" fill="#e26f46" fill-rule="evenodd" fill-opacity="1" stroke="#000000" stroke-opacity="1" stroke-width="3.2"></circle>
<circle clip-path="url(#clip873)" cx="1123.95" cy="416.5" r="14.4" fill="#e26f46" fill-rule="evenodd" fill-opacity="1" stroke="#000000" stroke-opacity="1" stroke-width="3.2"></circle>
<circle clip-path="url(#clip873)" cx="1166.32" cy="407.02" r="14.4" fill="#e26f46" fill-rule="evenodd" fill-opacity="1" stroke="#000000" stroke-opacity="1" stroke-width="3.2"></circle>
<circle clip-path="url(#clip873)" cx="1208.7" cy="397.014" r="14.4" fill="#e26f46" fill-rule="evenodd" fill-opacity="1" stroke="#000000" stroke-opacity="1" stroke-width="3.2"></circle>
<circle clip-path="url(#clip873)" cx="1208.7" cy="396.829" r="14.4" fill="#e26f46" fill-rule="evenodd" fill-opacity="1" stroke="#000000" stroke-opacity="1" stroke-width="3.2"></circle>
<circle clip-path="url(#clip873)" cx="1251.07" cy="387.256" r="14.4" fill="#e26f46" fill-rule="evenodd" fill-opacity="1" stroke="#000000" stroke-opacity="1" stroke-width="3.2"></circle>
<circle clip-path="url(#clip873)" cx="1293.44" cy="378.502" r="14.4" fill="#e26f46" fill-rule="evenodd" fill-opacity="1" stroke="#000000" stroke-opacity="1" stroke-width="3.2"></circle>
<circle clip-path="url(#clip873)" cx="1335.81" cy="369.29" r="14.4" fill="#e26f46" fill-rule="evenodd" fill-opacity="1" stroke="#000000" stroke-opacity="1" stroke-width="3.2"></circle>
<circle clip-path="url(#clip873)" cx="1378.19" cy="360.677" r="14.4" fill="#e26f46" fill-rule="evenodd" fill-opacity="1" stroke="#000000" stroke-opacity="1" stroke-width="3.2"></circle>
<circle clip-path="url(#clip873)" cx="1420.56" cy="352.478" r="14.4" fill="#e26f46" fill-rule="evenodd" fill-opacity="1" stroke="#000000" stroke-opacity="1" stroke-width="3.2"></circle>
<circle clip-path="url(#clip873)" cx="1420.56" cy="352.353" r="14.4" fill="#e26f46" fill-rule="evenodd" fill-opacity="1" stroke="#000000" stroke-opacity="1" stroke-width="3.2"></circle>
<circle clip-path="url(#clip873)" cx="1462.93" cy="344.771" r="14.4" fill="#e26f46" fill-rule="evenodd" fill-opacity="1" stroke="#000000" stroke-opacity="1" stroke-width="3.2"></circle>
<circle clip-path="url(#clip873)" cx="1462.93" cy="344.51" r="14.4" fill="#e26f46" fill-rule="evenodd" fill-opacity="1" stroke="#000000" stroke-opacity="1" stroke-width="3.2"></circle>
<circle clip-path="url(#clip873)" cx="1505.3" cy="337.119" r="14.4" fill="#e26f46" fill-rule="evenodd" fill-opacity="1" stroke="#000000" stroke-opacity="1" stroke-width="3.2"></circle>
<circle clip-path="url(#clip873)" cx="1505.3" cy="336.998" r="14.4" fill="#e26f46" fill-rule="evenodd" fill-opacity="1" stroke="#000000" stroke-opacity="1" stroke-width="3.2"></circle>
<circle clip-path="url(#clip873)" cx="1547.68" cy="329.616" r="14.4" fill="#e26f46" fill-rule="evenodd" fill-opacity="1" stroke="#000000" stroke-opacity="1" stroke-width="3.2"></circle>
<circle clip-path="url(#clip873)" cx="1590.05" cy="322.772" r="14.4" fill="#e26f46" fill-rule="evenodd" fill-opacity="1" stroke="#000000" stroke-opacity="1" stroke-width="3.2"></circle>
<circle clip-path="url(#clip873)" cx="1632.42" cy="316.089" r="14.4" fill="#e26f46" fill-rule="evenodd" fill-opacity="1" stroke="#000000" stroke-opacity="1" stroke-width="3.2"></circle>
<circle clip-path="url(#clip873)" cx="1674.79" cy="309.461" r="14.4" fill="#e26f46" fill-rule="evenodd" fill-opacity="1" stroke="#000000" stroke-opacity="1" stroke-width="3.2"></circle>
<circle clip-path="url(#clip873)" cx="1759.54" cy="296.799" r="14.4" fill="#e26f46" fill-rule="evenodd" fill-opacity="1" stroke="#000000" stroke-opacity="1" stroke-width="3.2"></circle>
<circle clip-path="url(#clip873)" cx="1801.91" cy="290.673" r="14.4" fill="#e26f46" fill-rule="evenodd" fill-opacity="1" stroke="#000000" stroke-opacity="1" stroke-width="3.2"></circle>
<circle clip-path="url(#clip873)" cx="1801.91" cy="290.59" r="14.4" fill="#e26f46" fill-rule="evenodd" fill-opacity="1" stroke="#000000" stroke-opacity="1" stroke-width="3.2"></circle>
<circle clip-path="url(#clip873)" cx="1844.28" cy="284.7" r="14.4" fill="#e26f46" fill-rule="evenodd" fill-opacity="1" stroke="#000000" stroke-opacity="1" stroke-width="3.2"></circle>
<circle clip-path="url(#clip873)" cx="1886.66" cy="279.128" r="14.4" fill="#e26f46" fill-rule="evenodd" fill-opacity="1" stroke="#000000" stroke-opacity="1" stroke-width="3.2"></circle>
<circle clip-path="url(#clip873)" cx="1929.03" cy="273.632" r="14.4" fill="#e26f46" fill-rule="evenodd" fill-opacity="1" stroke="#000000" stroke-opacity="1" stroke-width="3.2"></circle>
<circle clip-path="url(#clip873)" cx="1929.03" cy="273.492" r="14.4" fill="#e26f46" fill-rule="evenodd" fill-opacity="1" stroke="#000000" stroke-opacity="1" stroke-width="3.2"></circle>
<circle clip-path="url(#clip873)" cx="1971.4" cy="268.426" r="14.4" fill="#e26f46" fill-rule="evenodd" fill-opacity="1" stroke="#000000" stroke-opacity="1" stroke-width="3.2"></circle>
<circle clip-path="url(#clip873)" cx="2013.78" cy="263.539" r="14.4" fill="#e26f46" fill-rule="evenodd" fill-opacity="1" stroke="#000000" stroke-opacity="1" stroke-width="3.2"></circle>
<circle clip-path="url(#clip873)" cx="2056.15" cy="258.824" r="14.4" fill="#e26f46" fill-rule="evenodd" fill-opacity="1" stroke="#000000" stroke-opacity="1" stroke-width="3.2"></circle>
<circle clip-path="url(#clip873)" cx="2098.52" cy="254.306" r="14.4" fill="#e26f46" fill-rule="evenodd" fill-opacity="1" stroke="#000000" stroke-opacity="1" stroke-width="3.2"></circle>
<circle clip-path="url(#clip873)" cx="2140.89" cy="249.847" r="14.4" fill="#e26f46" fill-rule="evenodd" fill-opacity="1" stroke="#000000" stroke-opacity="1" stroke-width="3.2"></circle>
<circle clip-path="url(#clip873)" cx="2183.27" cy="245.76" r="14.4" fill="#e26f46" fill-rule="evenodd" fill-opacity="1" stroke="#000000" stroke-opacity="1" stroke-width="3.2"></circle>
<circle clip-path="url(#clip873)" cx="2183.27" cy="245.648" r="14.4" fill="#e26f46" fill-rule="evenodd" fill-opacity="1" stroke="#000000" stroke-opacity="1" stroke-width="3.2"></circle>
<circle clip-path="url(#clip873)" cx="2225.64" cy="241.693" r="14.4" fill="#e26f46" fill-rule="evenodd" fill-opacity="1" stroke="#000000" stroke-opacity="1" stroke-width="3.2"></circle>
<circle clip-path="url(#clip873)" cx="2225.64" cy="241.664" r="14.4" fill="#e26f46" fill-rule="evenodd" fill-opacity="1" stroke="#000000" stroke-opacity="1" stroke-width="3.2"></circle>
<circle clip-path="url(#clip873)" cx="2268.01" cy="237.814" r="14.4" fill="#e26f46" fill-rule="evenodd" fill-opacity="1" stroke="#000000" stroke-opacity="1" stroke-width="3.2"></circle>
<circle clip-path="url(#clip873)" cx="2268.01" cy="237.7" r="14.4" fill="#e26f46" fill-rule="evenodd" fill-opacity="1" stroke="#000000" stroke-opacity="1" stroke-width="3.2"></circle>
<circle clip-path="url(#clip873)" cx="2310.38" cy="233.925" r="14.4" fill="#e26f46" fill-rule="evenodd" fill-opacity="1" stroke="#000000" stroke-opacity="1" stroke-width="3.2"></circle>
<circle clip-path="url(#clip873)" cx="2310.38" cy="233.892" r="14.4" fill="#e26f46" fill-rule="evenodd" fill-opacity="1" stroke="#000000" stroke-opacity="1" stroke-width="3.2"></circle>
<circle clip-path="url(#clip873)" cx="2352.76" cy="230.258" r="14.4" fill="#e26f46" fill-rule="evenodd" fill-opacity="1" stroke="#000000" stroke-opacity="1" stroke-width="3.2"></circle>
<circle clip-path="url(#clip873)" cx="2352.76" cy="230.108" r="14.4" fill="#e26f46" fill-rule="evenodd" fill-opacity="1" stroke="#000000" stroke-opacity="1" stroke-width="3.2"></circle>
<path clip-path="url(#clip870)" d="M304.746 322.316 L795.798 322.316 L795.798 166.796 L304.746 166.796  Z" fill="#ffffff" fill-rule="evenodd" fill-opacity="1"></path>
<polyline clip-path="url(#clip870)" style="stroke:#000000; stroke-linecap:round; stroke-linejoin:round; stroke-width:4; stroke-opacity:1; fill:none" points="304.746,322.316 795.798,322.316 795.798,166.796 304.746,166.796 304.746,322.316 "></polyline>
<circle clip-path="url(#clip870)" cx="398.908" cy="218.636" r="20.48" fill="#009af9" fill-rule="evenodd" fill-opacity="1" stroke="#000000" stroke-opacity="1" stroke-width="4.55111"></circle>
<path clip-path="url(#clip870)" d="M509.088 204.527 Q503.995 204.527 500.986 208.323 Q498 212.12 498 218.67 Q498 225.198 500.986 228.994 Q503.995 232.791 509.088 232.791 Q514.18 232.791 517.143 228.994 Q520.129 225.198 520.129 218.67 Q520.129 212.12 517.143 208.323 Q514.18 204.527 509.088 204.527 M509.088 200.731 Q516.356 200.731 520.708 205.615 Q525.06 210.476 525.06 218.67 Q525.06 226.842 520.708 231.726 Q516.356 236.587 509.088 236.587 Q501.796 236.587 497.421 231.726 Q493.069 226.865 493.069 218.67 Q493.069 210.476 497.421 205.615 Q501.796 200.731 509.088 200.731 Z" fill="#000000" fill-rule="nonzero" fill-opacity="1"></path><path clip-path="url(#clip870)" d="M549.249 213.925 L549.249 199.897 L553.509 199.897 L553.509 235.916 L549.249 235.916 L549.249 232.027 Q547.907 234.342 545.847 235.476 Q543.81 236.587 540.939 236.587 Q536.24 236.587 533.277 232.837 Q530.337 229.087 530.337 222.976 Q530.337 216.865 533.277 213.115 Q536.24 209.365 540.939 209.365 Q543.81 209.365 545.847 210.499 Q547.907 211.61 549.249 213.925 M534.736 222.976 Q534.736 227.675 536.657 230.36 Q538.601 233.022 541.981 233.022 Q545.361 233.022 547.305 230.36 Q549.249 227.675 549.249 222.976 Q549.249 218.277 547.305 215.615 Q545.361 212.93 541.981 212.93 Q538.601 212.93 536.657 215.615 Q534.736 218.277 534.736 222.976 Z" fill="#000000" fill-rule="nonzero" fill-opacity="1"></path><path clip-path="url(#clip870)" d="M579.342 213.925 L579.342 199.897 L583.601 199.897 L583.601 235.916 L579.342 235.916 L579.342 232.027 Q577.999 234.342 575.939 235.476 Q573.902 236.587 571.032 236.587 Q566.333 236.587 563.37 232.837 Q560.43 229.087 560.43 222.976 Q560.43 216.865 563.37 213.115 Q566.333 209.365 571.032 209.365 Q573.902 209.365 575.939 210.499 Q577.999 211.61 579.342 213.925 M564.828 222.976 Q564.828 227.675 566.749 230.36 Q568.694 233.022 572.073 233.022 Q575.453 233.022 577.397 230.36 Q579.342 227.675 579.342 222.976 Q579.342 218.277 577.397 215.615 Q575.453 212.93 572.073 212.93 Q568.694 212.93 566.749 215.615 Q564.828 218.277 564.828 222.976 Z" fill="#000000" fill-rule="nonzero" fill-opacity="1"></path><path clip-path="url(#clip870)" d="M607.629 201.356 L614.596 201.356 L623.416 224.874 L632.281 201.356 L639.249 201.356 L639.249 235.916 L634.689 235.916 L634.689 205.569 L625.777 229.272 L621.078 229.272 L612.166 205.569 L612.166 235.916 L607.629 235.916 L607.629 201.356 Z" fill="#000000" fill-rule="nonzero" fill-opacity="1"></path><path clip-path="url(#clip870)" d="M658.392 212.976 Q654.966 212.976 652.976 215.661 Q650.985 218.323 650.985 222.976 Q650.985 227.629 652.953 230.314 Q654.943 232.976 658.392 232.976 Q661.795 232.976 663.786 230.291 Q665.777 227.606 665.777 222.976 Q665.777 218.37 663.786 215.684 Q661.795 212.976 658.392 212.976 M658.392 209.365 Q663.948 209.365 667.119 212.976 Q670.29 216.587 670.29 222.976 Q670.29 229.342 667.119 232.976 Q663.948 236.587 658.392 236.587 Q652.814 236.587 649.642 232.976 Q646.494 229.342 646.494 222.976 Q646.494 216.587 649.642 212.976 Q652.814 209.365 658.392 209.365 Z" fill="#000000" fill-rule="nonzero" fill-opacity="1"></path><path clip-path="url(#clip870)" d="M694.411 213.925 L694.411 199.897 L698.67 199.897 L698.67 235.916 L694.411 235.916 L694.411 232.027 Q693.068 234.342 691.008 235.476 Q688.971 236.587 686.101 236.587 Q681.401 236.587 678.439 232.837 Q675.499 229.087 675.499 222.976 Q675.499 216.865 678.439 213.115 Q681.401 209.365 686.101 209.365 Q688.971 209.365 691.008 210.499 Q693.068 211.61 694.411 213.925 M679.897 222.976 Q679.897 227.675 681.818 230.36 Q683.763 233.022 687.142 233.022 Q690.522 233.022 692.466 230.36 Q694.411 227.675 694.411 222.976 Q694.411 218.277 692.466 215.615 Q690.522 212.93 687.142 212.93 Q683.763 212.93 681.818 215.615 Q679.897 218.277 679.897 222.976 Z" fill="#000000" fill-rule="nonzero" fill-opacity="1"></path><path clip-path="url(#clip870)" d="M729.619 221.888 L729.619 223.971 L710.036 223.971 Q710.313 228.369 712.674 230.684 Q715.059 232.976 719.295 232.976 Q721.749 232.976 724.04 232.374 Q726.355 231.772 728.623 230.569 L728.623 234.596 Q726.332 235.568 723.924 236.078 Q721.517 236.587 719.04 236.587 Q712.837 236.587 709.202 232.976 Q705.591 229.365 705.591 223.207 Q705.591 216.842 709.017 213.115 Q712.466 209.365 718.299 209.365 Q723.531 209.365 726.563 212.745 Q729.619 216.101 729.619 221.888 M725.36 220.638 Q725.313 217.143 723.392 215.059 Q721.494 212.976 718.346 212.976 Q714.781 212.976 712.628 214.99 Q710.499 217.004 710.174 220.661 L725.36 220.638 Z" fill="#000000" fill-rule="nonzero" fill-opacity="1"></path><path clip-path="url(#clip870)" d="M753.137 210.754 L753.137 214.782 Q751.332 213.856 749.387 213.393 Q747.443 212.93 745.359 212.93 Q742.188 212.93 740.591 213.902 Q739.017 214.874 739.017 216.819 Q739.017 218.3 740.151 219.157 Q741.285 219.99 744.711 220.754 L746.17 221.078 Q750.707 222.05 752.605 223.832 Q754.526 225.592 754.526 228.763 Q754.526 232.374 751.656 234.481 Q748.809 236.587 743.809 236.587 Q741.725 236.587 739.457 236.17 Q737.211 235.777 734.711 234.967 L734.711 230.569 Q737.072 231.795 739.364 232.42 Q741.656 233.022 743.901 233.022 Q746.91 233.022 748.531 232.004 Q750.151 230.962 750.151 229.087 Q750.151 227.351 748.971 226.425 Q747.813 225.499 743.855 224.643 L742.373 224.295 Q738.415 223.462 736.656 221.749 Q734.897 220.013 734.897 217.004 Q734.897 213.346 737.489 211.356 Q740.082 209.365 744.85 209.365 Q747.211 209.365 749.295 209.712 Q751.378 210.059 753.137 210.754 Z" fill="#000000" fill-rule="nonzero" fill-opacity="1"></path><circle clip-path="url(#clip870)" cx="398.908" cy="270.476" r="20.48" fill="#e26f46" fill-rule="evenodd" fill-opacity="1" stroke="#000000" stroke-opacity="1" stroke-width="4.55111"></circle>
<path clip-path="url(#clip870)" d="M493.069 253.196 L514.921 253.196 L514.921 257.131 L497.745 257.131 L497.745 267.362 L514.203 267.362 L514.203 271.297 L497.745 271.297 L497.745 283.821 L515.338 283.821 L515.338 287.756 L493.069 287.756 L493.069 253.196 Z" fill="#000000" fill-rule="nonzero" fill-opacity="1"></path><path clip-path="url(#clip870)" d="M519.782 261.83 L524.296 261.83 L532.398 283.589 L540.499 261.83 L545.013 261.83 L535.291 287.756 L529.504 287.756 L519.782 261.83 Z" fill="#000000" fill-rule="nonzero" fill-opacity="1"></path><path clip-path="url(#clip870)" d="M573.069 273.728 L573.069 275.811 L553.486 275.811 Q553.763 280.209 556.124 282.524 Q558.509 284.816 562.745 284.816 Q565.198 284.816 567.49 284.214 Q569.805 283.612 572.073 282.409 L572.073 286.436 Q569.782 287.408 567.374 287.918 Q564.967 288.427 562.49 288.427 Q556.286 288.427 552.652 284.816 Q549.041 281.205 549.041 275.047 Q549.041 268.682 552.467 264.955 Q555.916 261.205 561.749 261.205 Q566.981 261.205 570.013 264.585 Q573.069 267.941 573.069 273.728 M568.81 272.478 Q568.763 268.983 566.842 266.899 Q564.944 264.816 561.796 264.816 Q558.231 264.816 556.078 266.83 Q553.948 268.844 553.624 272.501 L568.81 272.478 Z" fill="#000000" fill-rule="nonzero" fill-opacity="1"></path><path clip-path="url(#clip870)" d="M601.61 272.108 L601.61 287.756 L597.351 287.756 L597.351 272.247 Q597.351 268.566 595.916 266.737 Q594.481 264.909 591.61 264.909 Q588.161 264.909 586.171 267.108 Q584.18 269.307 584.18 273.103 L584.18 287.756 L579.897 287.756 L579.897 261.83 L584.18 261.83 L584.18 265.858 Q585.708 263.52 587.768 262.362 Q589.851 261.205 592.559 261.205 Q597.027 261.205 599.319 263.983 Q601.61 266.737 601.61 272.108 Z" fill="#000000" fill-rule="nonzero" fill-opacity="1"></path><path clip-path="url(#clip870)" d="M625.36 253.196 L632.328 253.196 L641.147 276.714 L650.013 253.196 L656.98 253.196 L656.98 287.756 L652.42 287.756 L652.42 257.409 L643.508 281.112 L638.809 281.112 L629.897 257.409 L629.897 287.756 L625.36 287.756 L625.36 253.196 Z" fill="#000000" fill-rule="nonzero" fill-opacity="1"></path><path clip-path="url(#clip870)" d="M676.124 264.816 Q672.698 264.816 670.707 267.501 Q668.716 270.163 668.716 274.816 Q668.716 279.469 670.684 282.154 Q672.675 284.816 676.124 284.816 Q679.527 284.816 681.517 282.131 Q683.508 279.446 683.508 274.816 Q683.508 270.21 681.517 267.524 Q679.527 264.816 676.124 264.816 M676.124 261.205 Q681.679 261.205 684.851 264.816 Q688.022 268.427 688.022 274.816 Q688.022 281.182 684.851 284.816 Q681.679 288.427 676.124 288.427 Q670.545 288.427 667.374 284.816 Q664.226 281.182 664.226 274.816 Q664.226 268.427 667.374 264.816 Q670.545 261.205 676.124 261.205 Z" fill="#000000" fill-rule="nonzero" fill-opacity="1"></path><path clip-path="url(#clip870)" d="M712.142 265.765 L712.142 251.737 L716.401 251.737 L716.401 287.756 L712.142 287.756 L712.142 283.867 Q710.799 286.182 708.739 287.316 Q706.702 288.427 703.832 288.427 Q699.133 288.427 696.17 284.677 Q693.23 280.927 693.23 274.816 Q693.23 268.705 696.17 264.955 Q699.133 261.205 703.832 261.205 Q706.702 261.205 708.739 262.339 Q710.799 263.45 712.142 265.765 M697.628 274.816 Q697.628 279.515 699.55 282.2 Q701.494 284.862 704.874 284.862 Q708.253 284.862 710.198 282.2 Q712.142 279.515 712.142 274.816 Q712.142 270.117 710.198 267.455 Q708.253 264.77 704.874 264.77 Q701.494 264.77 699.55 267.455 Q697.628 270.117 697.628 274.816 Z" fill="#000000" fill-rule="nonzero" fill-opacity="1"></path><path clip-path="url(#clip870)" d="M747.35 273.728 L747.35 275.811 L727.767 275.811 Q728.045 280.209 730.406 282.524 Q732.79 284.816 737.026 284.816 Q739.48 284.816 741.772 284.214 Q744.086 283.612 746.355 282.409 L746.355 286.436 Q744.063 287.408 741.656 287.918 Q739.248 288.427 736.772 288.427 Q730.568 288.427 726.934 284.816 Q723.323 281.205 723.323 275.047 Q723.323 268.682 726.748 264.955 Q730.198 261.205 736.031 261.205 Q741.262 261.205 744.295 264.585 Q747.35 267.941 747.35 273.728 M743.091 272.478 Q743.045 268.983 741.123 266.899 Q739.225 264.816 736.077 264.816 Q732.512 264.816 730.36 266.83 Q728.23 268.844 727.906 272.501 L743.091 272.478 Z" fill="#000000" fill-rule="nonzero" fill-opacity="1"></path><path clip-path="url(#clip870)" d="M770.869 262.594 L770.869 266.622 Q769.063 265.696 767.119 265.233 Q765.174 264.77 763.091 264.77 Q759.92 264.77 758.322 265.742 Q756.748 266.714 756.748 268.659 Q756.748 270.14 757.883 270.997 Q759.017 271.83 762.443 272.594 L763.901 272.918 Q768.438 273.89 770.336 275.672 Q772.257 277.432 772.257 280.603 Q772.257 284.214 769.387 286.321 Q766.54 288.427 761.54 288.427 Q759.457 288.427 757.188 288.01 Q754.943 287.617 752.443 286.807 L752.443 282.409 Q754.804 283.635 757.096 284.26 Q759.387 284.862 761.633 284.862 Q764.642 284.862 766.262 283.844 Q767.883 282.802 767.883 280.927 Q767.883 279.191 766.702 278.265 Q765.545 277.339 761.586 276.483 L760.105 276.135 Q756.146 275.302 754.387 273.589 Q752.628 271.853 752.628 268.844 Q752.628 265.186 755.221 263.196 Q757.813 261.205 762.582 261.205 Q764.943 261.205 767.026 261.552 Q769.109 261.899 770.869 262.594 Z" fill="#000000" fill-rule="nonzero" fill-opacity="1"></path></svg>