<svg xmlns="http://www.w3.org/2000/svg" xmlns:xlink="http://www.w3.org/1999/xlink" width="600" height="400" viewBox="0 0 2400 1600">
<defs>
  <clipPath id="clip190">
    <rect x="0" y="0" width="2400" height="1600"></rect>
  </clipPath>
</defs>
<path clip-path="url(#clip190)" d="M0 1600 L2400 1600 L2400 0 L0 0  Z" fill="#ffffff" fill-rule="evenodd" fill-opacity="1"></path>
<defs>
  <clipPath id="clip191">
    <rect x="480" y="0" width="1681" height="1600"></rect>
  </clipPath>
</defs>
<defs>
  <clipPath id="clip192">
    <rect x="370" y="47" width="1983" height="1365"></rect>
  </clipPath>
</defs>
<path clip-path="url(#clip190)" d="M370.302 1411.38 L2352.76 1411.38 L2352.76 47.2441 L370.302 47.2441  Z" fill="#ffffff" fill-rule="evenodd" fill-opacity="1"></path>
<polyline clip-path="url(#clip192)" style="stroke:#000000; stroke-linecap:round; stroke-linejoin:round; stroke-width:2; stroke-opacity:0.1; fill:none" points="675.775,1411.38 675.775,47.2441 "></polyline>
<polyline clip-path="url(#clip192)" style="stroke:#000000; stroke-linecap:round; stroke-linejoin:round; stroke-width:2; stroke-opacity:0.1; fill:none" points="1049.82,1411.38 1049.82,47.2441 "></polyline>
<polyline clip-path="url(#clip192)" style="stroke:#000000; stroke-linecap:round; stroke-linejoin:round; stroke-width:2; stroke-opacity:0.1; fill:none" points="1423.87,1411.38 1423.87,47.2441 "></polyline>
<polyline clip-path="url(#clip192)" style="stroke:#000000; stroke-linecap:round; stroke-linejoin:round; stroke-width:2; stroke-opacity:0.1; fill:none" points="1797.92,1411.38 1797.92,47.2441 "></polyline>
<polyline clip-path="url(#clip192)" style="stroke:#000000; stroke-linecap:round; stroke-linejoin:round; stroke-width:2; stroke-opacity:0.1; fill:none" points="2171.97,1411.38 2171.97,47.2441 "></polyline>
<polyline clip-path="url(#clip190)" style="stroke:#000000; stroke-linecap:round; stroke-linejoin:round; stroke-width:4; stroke-opacity:1; fill:none" points="370.302,1411.38 2352.76,1411.38 "></polyline>
<polyline clip-path="url(#clip190)" style="stroke:#000000; stroke-linecap:round; stroke-linejoin:round; stroke-width:4; stroke-opacity:1; fill:none" points="675.775,1411.38 675.775,1392.48 "></polyline>
<polyline clip-path="url(#clip190)" style="stroke:#000000; stroke-linecap:round; stroke-linejoin:round; stroke-width:4; stroke-opacity:1; fill:none" points="1049.82,1411.38 1049.82,1392.48 "></polyline>
<polyline clip-path="url(#clip190)" style="stroke:#000000; stroke-linecap:round; stroke-linejoin:round; stroke-width:4; stroke-opacity:1; fill:none" points="1423.87,1411.38 1423.87,1392.48 "></polyline>
<polyline clip-path="url(#clip190)" style="stroke:#000000; stroke-linecap:round; stroke-linejoin:round; stroke-width:4; stroke-opacity:1; fill:none" points="1797.92,1411.38 1797.92,1392.48 "></polyline>
<polyline clip-path="url(#clip190)" style="stroke:#000000; stroke-linecap:round; stroke-linejoin:round; stroke-width:4; stroke-opacity:1; fill:none" points="2171.97,1411.38 2171.97,1392.48 "></polyline>
<path clip-path="url(#clip190)" d="M623.321 1442.29 Q619.71 1442.29 617.882 1445.86 Q616.076 1449.4 616.076 1456.53 Q616.076 1463.64 617.882 1467.2 Q619.71 1470.74 623.321 1470.74 Q626.956 1470.74 628.761 1467.2 Q630.59 1463.64 630.59 1456.53 Q630.59 1449.4 628.761 1445.86 Q626.956 1442.29 623.321 1442.29 M623.321 1438.59 Q629.132 1438.59 632.187 1443.2 Q635.266 1447.78 635.266 1456.53 Q635.266 1465.26 632.187 1469.86 Q629.132 1474.45 623.321 1474.45 Q617.511 1474.45 614.433 1469.86 Q611.377 1465.26 611.377 1456.53 Q611.377 1447.78 614.433 1443.2 Q617.511 1438.59 623.321 1438.59 Z" fill="#000000" fill-rule="nonzero" fill-opacity="1"></path><path clip-path="url(#clip190)" d="M643.483 1467.9 L648.368 1467.9 L648.368 1473.78 L643.483 1473.78 L643.483 1467.9 Z" fill="#000000" fill-rule="nonzero" fill-opacity="1"></path><path clip-path="url(#clip190)" d="M668.553 1442.29 Q664.942 1442.29 663.113 1445.86 Q661.307 1449.4 661.307 1456.53 Q661.307 1463.64 663.113 1467.2 Q664.942 1470.74 668.553 1470.74 Q672.187 1470.74 673.992 1467.2 Q675.821 1463.64 675.821 1456.53 Q675.821 1449.4 673.992 1445.86 Q672.187 1442.29 668.553 1442.29 M668.553 1438.59 Q674.363 1438.59 677.418 1443.2 Q680.497 1447.78 680.497 1456.53 Q680.497 1465.26 677.418 1469.86 Q674.363 1474.45 668.553 1474.45 Q662.742 1474.45 659.664 1469.86 Q656.608 1465.26 656.608 1456.53 Q656.608 1447.78 659.664 1443.2 Q662.742 1438.59 668.553 1438.59 Z" fill="#000000" fill-rule="nonzero" fill-opacity="1"></path><path clip-path="url(#clip190)" d="M698.714 1442.29 Q695.103 1442.29 693.275 1445.86 Q691.469 1449.4 691.469 1456.53 Q691.469 1463.64 693.275 1467.2 Q695.103 1470.74 698.714 1470.74 Q702.349 1470.74 704.154 1467.2 Q705.983 1463.64 705.983 1456.53 Q705.983 1449.4 704.154 1445.86 Q702.349 1442.29 698.714 1442.29 M698.714 1438.59 Q704.525 1438.59 707.58 1443.2 Q710.659 1447.78 710.659 1456.53 Q710.659 1465.26 707.58 1469.86 Q704.525 1474.45 698.714 1474.45 Q692.904 1474.45 689.826 1469.86 Q686.77 1465.26 686.77 1456.53 Q686.77 1447.78 689.826 1443.2 Q692.904 1438.59 698.714 1438.59 Z" fill="#000000" fill-rule="nonzero" fill-opacity="1"></path><path clip-path="url(#clip190)" d="M733.043 1455.14 Q736.399 1455.86 738.274 1458.13 Q740.173 1460.4 740.173 1463.73 Q740.173 1468.85 736.654 1471.65 Q733.136 1474.45 726.654 1474.45 Q724.478 1474.45 722.163 1474.01 Q719.872 1473.59 717.418 1472.73 L717.418 1468.22 Q719.363 1469.35 721.677 1469.93 Q723.992 1470.51 726.515 1470.51 Q730.913 1470.51 733.205 1468.78 Q735.52 1467.04 735.52 1463.73 Q735.52 1460.67 733.367 1458.96 Q731.237 1457.22 727.418 1457.22 L723.39 1457.22 L723.39 1453.38 L727.603 1453.38 Q731.052 1453.38 732.881 1452.02 Q734.71 1450.63 734.71 1448.03 Q734.71 1445.37 732.812 1443.96 Q730.937 1442.53 727.418 1442.53 Q725.497 1442.53 723.298 1442.94 Q721.099 1443.36 718.46 1444.24 L718.46 1440.07 Q721.122 1439.33 723.437 1438.96 Q725.775 1438.59 727.835 1438.59 Q733.159 1438.59 736.261 1441.02 Q739.362 1443.43 739.362 1447.55 Q739.362 1450.42 737.719 1452.41 Q736.075 1454.38 733.043 1455.14 Z" fill="#000000" fill-rule="nonzero" fill-opacity="1"></path><path clip-path="url(#clip190)" d="M996.964 1442.29 Q993.353 1442.29 991.524 1445.86 Q989.719 1449.4 989.719 1456.53 Q989.719 1463.64 991.524 1467.2 Q993.353 1470.74 996.964 1470.74 Q1000.6 1470.74 1002.4 1467.2 Q1004.23 1463.64 1004.23 1456.53 Q1004.23 1449.4 1002.4 1445.86 Q1000.6 1442.29 996.964 1442.29 M996.964 1438.59 Q1002.77 1438.59 1005.83 1443.2 Q1008.91 1447.78 1008.91 1456.53 Q1008.91 1465.26 1005.83 1469.86 Q1002.77 1474.45 996.964 1474.45 Q991.154 1474.45 988.075 1469.86 Q985.02 1465.26 985.02 1456.53 Q985.02 1447.78 988.075 1443.2 Q991.154 1438.59 996.964 1438.59 Z" fill="#000000" fill-rule="nonzero" fill-opacity="1"></path><path clip-path="url(#clip190)" d="M1017.13 1467.9 L1022.01 1467.9 L1022.01 1473.78 L1017.13 1473.78 L1017.13 1467.9 Z" fill="#000000" fill-rule="nonzero" fill-opacity="1"></path><path clip-path="url(#clip190)" d="M1042.2 1442.29 Q1038.58 1442.29 1036.76 1445.86 Q1034.95 1449.4 1034.95 1456.53 Q1034.95 1463.64 1036.76 1467.2 Q1038.58 1470.74 1042.2 1470.74 Q1045.83 1470.74 1047.64 1467.2 Q1049.46 1463.64 1049.46 1456.53 Q1049.46 1449.4 1047.64 1445.86 Q1045.83 1442.29 1042.2 1442.29 M1042.2 1438.59 Q1048.01 1438.59 1051.06 1443.2 Q1054.14 1447.78 1054.14 1456.53 Q1054.14 1465.26 1051.06 1469.86 Q1048.01 1474.45 1042.2 1474.45 Q1036.39 1474.45 1033.31 1469.86 Q1030.25 1465.26 1030.25 1456.53 Q1030.25 1447.78 1033.31 1443.2 Q1036.39 1438.59 1042.2 1438.59 Z" fill="#000000" fill-rule="nonzero" fill-opacity="1"></path><path clip-path="url(#clip190)" d="M1072.36 1442.29 Q1068.75 1442.29 1066.92 1445.86 Q1065.11 1449.4 1065.11 1456.53 Q1065.11 1463.64 1066.92 1467.2 Q1068.75 1470.74 1072.36 1470.74 Q1075.99 1470.74 1077.8 1467.2 Q1079.63 1463.64 1079.63 1456.53 Q1079.63 1449.4 1077.8 1445.86 Q1075.99 1442.29 1072.36 1442.29 M1072.36 1438.59 Q1078.17 1438.59 1081.22 1443.2 Q1084.3 1447.78 1084.3 1456.53 Q1084.3 1465.26 1081.22 1469.86 Q1078.17 1474.45 1072.36 1474.45 Q1066.55 1474.45 1063.47 1469.86 Q1060.41 1465.26 1060.41 1456.53 Q1060.41 1447.78 1063.47 1443.2 Q1066.55 1438.59 1072.36 1438.59 Z" fill="#000000" fill-rule="nonzero" fill-opacity="1"></path><path clip-path="url(#clip190)" d="M1103.1 1454.63 Q1099.95 1454.63 1098.1 1456.78 Q1096.27 1458.94 1096.27 1462.69 Q1096.27 1466.41 1098.1 1468.59 Q1099.95 1470.74 1103.1 1470.74 Q1106.25 1470.74 1108.07 1468.59 Q1109.93 1466.41 1109.93 1462.69 Q1109.93 1458.94 1108.07 1456.78 Q1106.25 1454.63 1103.1 1454.63 M1112.38 1439.98 L1112.38 1444.24 Q1110.62 1443.41 1108.82 1442.97 Q1107.03 1442.53 1105.27 1442.53 Q1100.64 1442.53 1098.19 1445.65 Q1095.76 1448.78 1095.41 1455.1 Q1096.78 1453.08 1098.84 1452.02 Q1100.9 1450.93 1103.38 1450.93 Q1108.58 1450.93 1111.59 1454.1 Q1114.63 1457.25 1114.63 1462.69 Q1114.63 1468.01 1111.48 1471.23 Q1108.33 1474.45 1103.1 1474.45 Q1097.1 1474.45 1093.93 1469.86 Q1090.76 1465.26 1090.76 1456.53 Q1090.76 1448.34 1094.65 1443.47 Q1098.54 1438.59 1105.09 1438.59 Q1106.85 1438.59 1108.63 1438.94 Q1110.44 1439.29 1112.38 1439.98 Z" fill="#000000" fill-rule="nonzero" fill-opacity="1"></path><path clip-path="url(#clip190)" d="M1371.19 1442.29 Q1367.57 1442.29 1365.75 1445.86 Q1363.94 1449.4 1363.94 1456.53 Q1363.94 1463.64 1365.75 1467.2 Q1367.57 1470.74 1371.19 1470.74 Q1374.82 1470.74 1376.63 1467.2 Q1378.45 1463.64 1378.45 1456.53 Q1378.45 1449.4 1376.63 1445.86 Q1374.82 1442.29 1371.19 1442.29 M1371.19 1438.59 Q1377 1438.59 1380.05 1443.2 Q1383.13 1447.78 1383.13 1456.53 Q1383.13 1465.26 1380.05 1469.86 Q1377 1474.45 1371.19 1474.45 Q1365.38 1474.45 1362.3 1469.86 Q1359.24 1465.26 1359.24 1456.53 Q1359.24 1447.78 1362.3 1443.2 Q1365.38 1438.59 1371.19 1438.59 Z" fill="#000000" fill-rule="nonzero" fill-opacity="1"></path><path clip-path="url(#clip190)" d="M1391.35 1467.9 L1396.23 1467.9 L1396.23 1473.78 L1391.35 1473.78 L1391.35 1467.9 Z" fill="#000000" fill-rule="nonzero" fill-opacity="1"></path><path clip-path="url(#clip190)" d="M1416.42 1442.29 Q1412.81 1442.29 1410.98 1445.86 Q1409.17 1449.4 1409.17 1456.53 Q1409.17 1463.64 1410.98 1467.2 Q1412.81 1470.74 1416.42 1470.74 Q1420.05 1470.74 1421.86 1467.2 Q1423.69 1463.64 1423.69 1456.53 Q1423.69 1449.4 1421.86 1445.86 Q1420.05 1442.29 1416.42 1442.29 M1416.42 1438.59 Q1422.23 1438.59 1425.28 1443.2 Q1428.36 1447.78 1428.36 1456.53 Q1428.36 1465.26 1425.28 1469.86 Q1422.23 1474.45 1416.42 1474.45 Q1410.61 1474.45 1407.53 1469.86 Q1404.47 1465.26 1404.47 1456.53 Q1404.47 1447.78 1407.53 1443.2 Q1410.61 1438.59 1416.42 1438.59 Z" fill="#000000" fill-rule="nonzero" fill-opacity="1"></path><path clip-path="url(#clip190)" d="M1446.58 1442.29 Q1442.97 1442.29 1441.14 1445.86 Q1439.33 1449.4 1439.33 1456.53 Q1439.33 1463.64 1441.14 1467.2 Q1442.97 1470.74 1446.58 1470.74 Q1450.21 1470.74 1452.02 1467.2 Q1453.85 1463.64 1453.85 1456.53 Q1453.85 1449.4 1452.02 1445.86 Q1450.21 1442.29 1446.58 1442.29 M1446.58 1438.59 Q1452.39 1438.59 1455.44 1443.2 Q1458.52 1447.78 1458.52 1456.53 Q1458.52 1465.26 1455.44 1469.86 Q1452.39 1474.45 1446.58 1474.45 Q1440.77 1474.45 1437.69 1469.86 Q1434.63 1465.26 1434.63 1456.53 Q1434.63 1447.78 1437.69 1443.2 Q1440.77 1438.59 1446.58 1438.59 Z" fill="#000000" fill-rule="nonzero" fill-opacity="1"></path><path clip-path="url(#clip190)" d="M1466.88 1473.06 L1466.88 1468.8 Q1468.64 1469.63 1470.44 1470.07 Q1472.25 1470.51 1473.99 1470.51 Q1478.62 1470.51 1481.05 1467.41 Q1483.5 1464.28 1483.85 1457.94 Q1482.5 1459.93 1480.44 1461 Q1478.38 1462.06 1475.88 1462.06 Q1470.7 1462.06 1467.67 1458.94 Q1464.66 1455.79 1464.66 1450.35 Q1464.66 1445.03 1467.81 1441.81 Q1470.95 1438.59 1476.18 1438.59 Q1482.18 1438.59 1485.33 1443.2 Q1488.5 1447.78 1488.5 1456.53 Q1488.5 1464.7 1484.61 1469.59 Q1480.75 1474.45 1474.19 1474.45 Q1472.44 1474.45 1470.63 1474.1 Q1468.82 1473.75 1466.88 1473.06 M1476.18 1458.41 Q1479.33 1458.41 1481.16 1456.25 Q1483.01 1454.1 1483.01 1450.35 Q1483.01 1446.62 1481.16 1444.47 Q1479.33 1442.29 1476.18 1442.29 Q1473.04 1442.29 1471.19 1444.47 Q1469.36 1446.62 1469.36 1450.35 Q1469.36 1454.1 1471.19 1456.25 Q1473.04 1458.41 1476.18 1458.41 Z" fill="#000000" fill-rule="nonzero" fill-opacity="1"></path><path clip-path="url(#clip190)" d="M1745.94 1442.29 Q1742.33 1442.29 1740.5 1445.86 Q1738.69 1449.4 1738.69 1456.53 Q1738.69 1463.64 1740.5 1467.2 Q1742.33 1470.74 1745.94 1470.74 Q1749.57 1470.74 1751.38 1467.2 Q1753.21 1463.64 1753.21 1456.53 Q1753.21 1449.4 1751.38 1445.86 Q1749.57 1442.29 1745.94 1442.29 M1745.94 1438.59 Q1751.75 1438.59 1754.81 1443.2 Q1757.88 1447.78 1757.88 1456.53 Q1757.88 1465.26 1754.81 1469.86 Q1751.75 1474.45 1745.94 1474.45 Q1740.13 1474.45 1737.05 1469.86 Q1734 1465.26 1734 1456.53 Q1734 1447.78 1737.05 1443.2 Q1740.13 1438.59 1745.94 1438.59 Z" fill="#000000" fill-rule="nonzero" fill-opacity="1"></path><path clip-path="url(#clip190)" d="M1766.1 1467.9 L1770.99 1467.9 L1770.99 1473.78 L1766.1 1473.78 L1766.1 1467.9 Z" fill="#000000" fill-rule="nonzero" fill-opacity="1"></path><path clip-path="url(#clip190)" d="M1791.17 1442.29 Q1787.56 1442.29 1785.73 1445.86 Q1783.93 1449.4 1783.93 1456.53 Q1783.93 1463.64 1785.73 1467.2 Q1787.56 1470.74 1791.17 1470.74 Q1794.8 1470.74 1796.61 1467.2 Q1798.44 1463.64 1798.44 1456.53 Q1798.44 1449.4 1796.61 1445.86 Q1794.8 1442.29 1791.17 1442.29 M1791.17 1438.59 Q1796.98 1438.59 1800.04 1443.2 Q1803.12 1447.78 1803.12 1456.53 Q1803.12 1465.26 1800.04 1469.86 Q1796.98 1474.45 1791.17 1474.45 Q1785.36 1474.45 1782.28 1469.86 Q1779.23 1465.26 1779.23 1456.53 Q1779.23 1447.78 1782.28 1443.2 Q1785.36 1438.59 1791.17 1438.59 Z" fill="#000000" fill-rule="nonzero" fill-opacity="1"></path><path clip-path="url(#clip190)" d="M1812.14 1469.84 L1819.78 1469.84 L1819.78 1443.47 L1811.47 1445.14 L1811.47 1440.88 L1819.74 1439.22 L1824.41 1439.22 L1824.41 1469.84 L1832.05 1469.84 L1832.05 1473.78 L1812.14 1473.78 L1812.14 1469.84 Z" fill="#000000" fill-rule="nonzero" fill-opacity="1"></path><path clip-path="url(#clip190)" d="M1845.52 1469.84 L1861.84 1469.84 L1861.84 1473.78 L1839.9 1473.78 L1839.9 1469.84 Q1842.56 1467.09 1847.14 1462.46 Q1851.75 1457.8 1852.93 1456.46 Q1855.17 1453.94 1856.05 1452.2 Q1856.96 1450.44 1856.96 1448.75 Q1856.96 1446 1855.01 1444.26 Q1853.09 1442.53 1849.99 1442.53 Q1847.79 1442.53 1845.34 1443.29 Q1842.91 1444.05 1840.13 1445.6 L1840.13 1440.88 Q1842.95 1439.75 1845.41 1439.17 Q1847.86 1438.59 1849.9 1438.59 Q1855.27 1438.59 1858.46 1441.28 Q1861.66 1443.96 1861.66 1448.45 Q1861.66 1450.58 1860.85 1452.5 Q1860.06 1454.4 1857.95 1456.99 Q1857.37 1457.66 1854.27 1460.88 Q1851.17 1464.08 1845.52 1469.84 Z" fill="#000000" fill-rule="nonzero" fill-opacity="1"></path><path clip-path="url(#clip190)" d="M2119.69 1442.29 Q2116.08 1442.29 2114.25 1445.86 Q2112.44 1449.4 2112.44 1456.53 Q2112.44 1463.64 2114.25 1467.2 Q2116.08 1470.74 2119.69 1470.74 Q2123.32 1470.74 2125.13 1467.2 Q2126.95 1463.64 2126.95 1456.53 Q2126.95 1449.4 2125.13 1445.86 Q2123.32 1442.29 2119.69 1442.29 M2119.69 1438.59 Q2125.5 1438.59 2128.55 1443.2 Q2131.63 1447.78 2131.63 1456.53 Q2131.63 1465.26 2128.55 1469.86 Q2125.5 1474.45 2119.69 1474.45 Q2113.88 1474.45 2110.8 1469.86 Q2107.74 1465.26 2107.74 1456.53 Q2107.74 1447.78 2110.8 1443.2 Q2113.88 1438.59 2119.69 1438.59 Z" fill="#000000" fill-rule="nonzero" fill-opacity="1"></path><path clip-path="url(#clip190)" d="M2139.85 1467.9 L2144.73 1467.9 L2144.73 1473.78 L2139.85 1473.78 L2139.85 1467.9 Z" fill="#000000" fill-rule="nonzero" fill-opacity="1"></path><path clip-path="url(#clip190)" d="M2164.92 1442.29 Q2161.31 1442.29 2159.48 1445.86 Q2157.67 1449.4 2157.67 1456.53 Q2157.67 1463.64 2159.48 1467.2 Q2161.31 1470.74 2164.92 1470.74 Q2168.55 1470.74 2170.36 1467.2 Q2172.19 1463.64 2172.19 1456.53 Q2172.19 1449.4 2170.36 1445.86 Q2168.55 1442.29 2164.92 1442.29 M2164.92 1438.59 Q2170.73 1438.59 2173.78 1443.2 Q2176.86 1447.78 2176.86 1456.53 Q2176.86 1465.26 2173.78 1469.86 Q2170.73 1474.45 2164.92 1474.45 Q2159.11 1474.45 2156.03 1469.86 Q2152.97 1465.26 2152.97 1456.53 Q2152.97 1447.78 2156.03 1443.2 Q2159.11 1438.59 2164.92 1438.59 Z" fill="#000000" fill-rule="nonzero" fill-opacity="1"></path><path clip-path="url(#clip190)" d="M2185.89 1469.84 L2193.53 1469.84 L2193.53 1443.47 L2185.22 1445.14 L2185.22 1440.88 L2193.48 1439.22 L2198.16 1439.22 L2198.16 1469.84 L2205.8 1469.84 L2205.8 1473.78 L2185.89 1473.78 L2185.89 1469.84 Z" fill="#000000" fill-rule="nonzero" fill-opacity="1"></path><path clip-path="url(#clip190)" d="M2215.29 1439.22 L2233.64 1439.22 L2233.64 1443.15 L2219.57 1443.15 L2219.57 1451.62 Q2220.59 1451.28 2221.61 1451.11 Q2222.63 1450.93 2223.64 1450.93 Q2229.43 1450.93 2232.81 1454.1 Q2236.19 1457.27 2236.19 1462.69 Q2236.19 1468.27 2232.72 1471.37 Q2229.25 1474.45 2222.93 1474.45 Q2220.75 1474.45 2218.48 1474.08 Q2216.24 1473.71 2213.83 1472.97 L2213.83 1468.27 Q2215.91 1469.4 2218.13 1469.96 Q2220.36 1470.51 2222.83 1470.51 Q2226.84 1470.51 2229.18 1468.41 Q2231.51 1466.3 2231.51 1462.69 Q2231.51 1459.08 2229.18 1456.97 Q2226.84 1454.86 2222.83 1454.86 Q2220.96 1454.86 2219.08 1455.28 Q2217.23 1455.7 2215.29 1456.58 L2215.29 1439.22 Z" fill="#000000" fill-rule="nonzero" fill-opacity="1"></path><path clip-path="url(#clip190)" d="M1246.7 1544.15 Q1246.7 1533.01 1250.86 1524.02 Q1252.63 1520.25 1255.11 1517.1 Q1257.59 1513.94 1259.23 1512.56 Q1260.87 1511.17 1261.32 1511.17 Q1261.97 1511.17 1262 1511.82 Q1262 1512.14 1261.13 1512.94 Q1250.5 1523.76 1250.54 1544.15 Q1250.54 1564.6 1260.87 1575 Q1262 1576.13 1262 1576.48 Q1262 1577.13 1261.32 1577.13 Q1260.87 1577.13 1259.3 1575.81 Q1257.72 1574.49 1255.27 1571.46 Q1252.82 1568.43 1251.05 1564.73 Q1246.7 1555.74 1246.7 1544.15 Z" fill="#000000" fill-rule="nonzero" fill-opacity="1"></path><path clip-path="url(#clip190)" d="M1311.88 1516.71 Q1311.88 1517.32 1311.75 1517.84 L1309.94 1529.3 Q1309.85 1530.17 1309.65 1530.49 Q1309.49 1530.82 1308.98 1530.82 Q1308.17 1530.82 1308.17 1529.98 Q1308.17 1529.5 1308.37 1528.72 Q1308.91 1525.08 1308.91 1523.44 Q1308.91 1522.35 1308.69 1521.54 Q1308.5 1520.7 1308.17 1520.12 Q1307.88 1519.54 1307.21 1519.16 Q1306.53 1518.77 1305.89 1518.55 Q1305.24 1518.32 1304.08 1518.22 Q1302.92 1518.1 1301.93 1518.06 Q1300.93 1518.03 1299.28 1518.03 Q1295.71 1518.03 1295.13 1518.16 Q1294.52 1518.32 1294.2 1518.8 Q1293.91 1519.26 1293.58 1520.61 L1284.82 1555.62 L1284.57 1557 Q1284.57 1557.77 1285.05 1558.03 Q1285.53 1558.29 1287.01 1558.45 Q1289.14 1558.61 1291.23 1558.61 Q1291.3 1558.61 1291.43 1558.61 Q1292.13 1558.61 1292.42 1558.64 Q1292.71 1558.64 1293 1558.71 Q1293.29 1558.77 1293.36 1558.93 Q1293.45 1559.06 1293.45 1559.32 Q1293.45 1559.93 1293.2 1560.25 Q1292.94 1560.54 1292.68 1560.61 Q1292.46 1560.64 1292.01 1560.64 Q1291.1 1560.64 1289.17 1560.58 Q1287.24 1560.51 1286.27 1560.51 L1280.8 1560.45 L1275.19 1560.51 Q1274.32 1560.51 1272.49 1560.58 Q1270.65 1560.64 1269.78 1560.64 Q1268.66 1560.64 1268.66 1559.83 Q1268.66 1558.93 1269.08 1558.77 Q1269.53 1558.61 1271.43 1558.61 Q1274.1 1558.61 1275.55 1558.48 Q1277 1558.35 1277.77 1557.9 Q1278.58 1557.45 1278.8 1557 Q1279.03 1556.52 1279.28 1555.42 L1288.14 1520.22 Q1288.4 1519.45 1288.4 1518.84 Q1288.4 1518.51 1288.3 1518.39 Q1288.24 1518.26 1287.82 1518.16 Q1287.4 1518.03 1286.53 1518.03 L1283.95 1518.03 Q1281.31 1518.03 1279.67 1518.16 Q1278.06 1518.26 1276.51 1518.74 Q1275 1519.22 1274.1 1519.9 Q1273.23 1520.58 1272.26 1521.96 Q1271.3 1523.35 1270.59 1525.02 Q1269.91 1526.69 1268.95 1529.43 Q1268.62 1530.33 1268.43 1530.59 Q1268.27 1530.82 1267.82 1530.82 Q1267.5 1530.82 1267.24 1530.62 Q1267.01 1530.4 1267.01 1530.11 Q1267.34 1529.05 1267.4 1528.92 L1271.36 1517.29 Q1271.68 1516.36 1271.97 1516.2 Q1272.3 1516 1273.49 1516 L1310.07 1516 Q1310.65 1516 1310.85 1516 Q1311.04 1516 1311.36 1516.07 Q1311.68 1516.13 1311.78 1516.29 Q1311.88 1516.45 1311.88 1516.71 Z" fill="#000000" fill-rule="nonzero" fill-opacity="1"></path><path clip-path="url(#clip190)" d="M1305.16 1576.2 Q1305.16 1575.87 1305.42 1575.16 L1328.71 1512.94 Q1328.71 1512.88 1328.87 1512.52 Q1329.03 1512.17 1329.13 1511.94 Q1329.22 1511.69 1329.42 1511.49 Q1329.64 1511.3 1329.9 1511.3 Q1330.54 1511.3 1330.54 1512.11 Q1330.54 1512.17 1330.35 1512.94 L1307 1575.23 Q1306.61 1576.36 1306.36 1576.68 Q1306.13 1577 1305.74 1577 Q1305.16 1577 1305.16 1576.2 Z" fill="#000000" fill-rule="nonzero" fill-opacity="1"></path><path clip-path="url(#clip190)" d="M1382.69 1516.71 Q1382.69 1517.32 1382.56 1517.84 L1380.76 1529.3 Q1380.66 1530.17 1380.47 1530.49 Q1380.31 1530.82 1379.79 1530.82 Q1378.99 1530.82 1378.99 1529.98 Q1378.99 1529.5 1379.18 1528.72 Q1379.73 1525.08 1379.73 1523.44 Q1379.73 1522.35 1379.5 1521.54 Q1379.31 1520.7 1378.99 1520.12 Q1378.7 1519.54 1378.02 1519.16 Q1377.35 1518.77 1376.7 1518.55 Q1376.06 1518.32 1374.9 1518.22 Q1373.74 1518.1 1372.74 1518.06 Q1371.74 1518.03 1370.1 1518.03 Q1366.52 1518.03 1365.94 1518.16 Q1365.33 1518.32 1365.01 1518.8 Q1364.72 1519.26 1364.4 1520.61 L1355.64 1555.62 L1355.38 1557 Q1355.38 1557.77 1355.86 1558.03 Q1356.35 1558.29 1357.83 1558.45 Q1359.95 1558.61 1362.05 1558.61 Q1362.11 1558.61 1362.24 1558.61 Q1362.95 1558.61 1363.24 1558.64 Q1363.53 1558.64 1363.82 1558.71 Q1364.11 1558.77 1364.17 1558.93 Q1364.27 1559.06 1364.27 1559.32 Q1364.27 1559.93 1364.01 1560.25 Q1363.75 1560.54 1363.5 1560.61 Q1363.27 1560.64 1362.82 1560.64 Q1361.92 1560.64 1359.99 1560.58 Q1358.05 1560.51 1357.09 1560.51 L1351.61 1560.45 L1346.01 1560.51 Q1345.14 1560.51 1343.3 1560.58 Q1341.47 1560.64 1340.6 1560.64 Q1339.47 1560.64 1339.47 1559.83 Q1339.47 1558.93 1339.89 1558.77 Q1340.34 1558.61 1342.24 1558.61 Q1344.91 1558.61 1346.36 1558.48 Q1347.81 1558.35 1348.59 1557.9 Q1349.39 1557.45 1349.62 1557 Q1349.84 1556.52 1350.1 1555.42 L1358.96 1520.22 Q1359.21 1519.45 1359.21 1518.84 Q1359.21 1518.51 1359.12 1518.39 Q1359.05 1518.26 1358.63 1518.16 Q1358.21 1518.03 1357.35 1518.03 L1354.77 1518.03 Q1352.13 1518.03 1350.49 1518.16 Q1348.88 1518.26 1347.33 1518.74 Q1345.82 1519.22 1344.91 1519.9 Q1344.04 1520.58 1343.08 1521.96 Q1342.11 1523.35 1341.4 1525.02 Q1340.73 1526.69 1339.76 1529.43 Q1339.44 1530.33 1339.25 1530.59 Q1339.08 1530.82 1338.63 1530.82 Q1338.31 1530.82 1338.05 1530.62 Q1337.83 1530.4 1337.83 1530.11 Q1338.15 1529.05 1338.22 1528.92 L1342.18 1517.29 Q1342.5 1516.36 1342.79 1516.2 Q1343.11 1516 1344.3 1516 L1380.89 1516 Q1381.47 1516 1381.66 1516 Q1381.85 1516 1382.18 1516.07 Q1382.5 1516.13 1382.59 1516.29 Q1382.69 1516.45 1382.69 1516.71 Z" fill="#000000" fill-rule="nonzero" fill-opacity="1"></path><path clip-path="url(#clip190)" d="M1422.07 1549.16 L1421.15 1557.14 Q1421.08 1557.86 1420.96 1558.09 Q1420.85 1558.29 1420.49 1558.29 Q1419.95 1558.29 1419.95 1557.75 Q1419.95 1557.53 1420.04 1556.92 Q1420.18 1555.68 1420.18 1554.41 Q1420.18 1552.99 1419.91 1552.12 Q1419.66 1551.21 1418.94 1550.56 Q1418.21 1549.91 1416.88 1549.64 Q1415.55 1549.34 1413.44 1549.34 L1407.35 1549.34 Q1405.86 1549.34 1405.5 1549.61 Q1405.16 1549.88 1404.85 1551.15 L1401.89 1562.87 L1406.09 1562.87 Q1409.02 1562.87 1410.17 1562.01 Q1411.32 1561.16 1412.04 1558.43 Q1412.15 1558 1412.2 1557.84 Q1412.26 1557.66 1412.38 1557.57 Q1412.51 1557.46 1412.74 1557.46 Q1412.94 1557.46 1413.07 1557.59 Q1413.21 1557.71 1413.25 1557.84 L1413.3 1557.98 Q1413.3 1558.2 1413.16 1558.72 L1410.62 1568.73 Q1410.44 1569.41 1410.32 1569.56 Q1410.23 1569.7 1409.92 1569.7 Q1409.69 1569.7 1409.54 1569.54 Q1409.38 1569.38 1409.38 1569.14 Q1409.42 1568.87 1409.51 1568.64 Q1409.83 1567.26 1409.83 1566.39 Q1409.83 1565.82 1409.72 1565.48 Q1409.6 1565.15 1409.22 1564.85 Q1408.84 1564.56 1408.05 1564.42 Q1407.26 1564.29 1406 1564.29 L1401.53 1564.29 L1398.67 1575.79 L1398.47 1576.85 Q1398.47 1577.32 1398.71 1577.5 Q1398.98 1577.68 1399.95 1577.77 Q1401.4 1577.88 1402.34 1577.88 Q1403.52 1577.88 1403.65 1577.93 Q1403.92 1578.06 1403.92 1578.42 Q1403.92 1578.83 1403.74 1579.06 Q1403.56 1579.26 1403.4 1579.28 Q1403.25 1579.3 1402.95 1579.3 L1396.08 1579.17 L1389.99 1579.3 Q1389.29 1579.3 1389.29 1578.74 Q1389.29 1578.31 1389.47 1578.13 Q1389.65 1577.93 1389.85 1577.91 Q1390.06 1577.88 1390.58 1577.88 Q1391.7 1577.88 1392.38 1577.82 Q1393.06 1577.75 1393.48 1577.66 Q1393.93 1577.54 1394.16 1577.23 Q1394.41 1576.91 1394.52 1576.64 Q1394.63 1576.35 1394.79 1575.7 L1400.88 1551.28 Q1401.1 1550.45 1401.1 1550.18 Q1401.1 1549.88 1400.9 1549.7 Q1400.72 1549.52 1400.22 1549.45 Q1399.73 1549.36 1399.32 1549.36 Q1398.94 1549.34 1398.11 1549.34 Q1397.56 1549.34 1397.34 1549.32 Q1397.14 1549.3 1396.98 1549.18 Q1396.82 1549.07 1396.82 1548.82 Q1396.82 1548.19 1397.09 1548.06 Q1397.38 1547.9 1398.2 1547.9 L1420.83 1547.9 Q1421.73 1547.9 1421.93 1548.1 Q1422.16 1548.28 1422.07 1549.16 Z" fill="#000000" fill-rule="nonzero" fill-opacity="1"></path><path clip-path="url(#clip190)" d="M1428.88 1576.48 Q1428.88 1576.16 1429.72 1575.36 Q1440.35 1564.54 1440.35 1544.15 Q1440.35 1523.7 1430.14 1513.36 Q1428.88 1512.17 1428.88 1511.82 Q1428.88 1511.17 1429.52 1511.17 Q1429.98 1511.17 1431.55 1512.49 Q1433.16 1513.81 1435.58 1516.84 Q1438.03 1519.87 1439.83 1523.57 Q1444.18 1532.56 1444.18 1544.15 Q1444.18 1555.29 1440.02 1564.28 Q1438.25 1568.05 1435.77 1571.2 Q1433.29 1574.36 1431.65 1575.74 Q1430.01 1577.13 1429.52 1577.13 Q1428.88 1577.13 1428.88 1576.48 Z" fill="#000000" fill-rule="nonzero" fill-opacity="1"></path><path clip-path="url(#clip190)" d="M1451.06 1520.78 Q1451.06 1519.94 1451.13 1519.7 Q1451.22 1519.45 1451.58 1519.06 L1460.44 1509.19 Q1465.29 1503.73 1465.29 1498.98 Q1465.29 1495.89 1463.66 1493.68 Q1462.06 1491.47 1459.11 1491.47 Q1457.08 1491.47 1455.37 1492.71 Q1453.65 1493.95 1452.86 1496.16 Q1453 1496.11 1453.47 1496.11 Q1454.62 1496.11 1455.25 1496.84 Q1455.91 1497.56 1455.91 1498.53 Q1455.91 1499.77 1455.1 1500.38 Q1454.31 1500.96 1453.52 1500.96 Q1453.2 1500.96 1452.77 1500.89 Q1452.37 1500.83 1451.71 1500.2 Q1451.06 1499.54 1451.06 1498.39 Q1451.06 1495.17 1453.5 1492.6 Q1455.95 1490.03 1459.7 1490.03 Q1463.93 1490.03 1466.71 1492.55 Q1469.5 1495.06 1469.5 1498.98 Q1469.5 1500.35 1469.07 1501.62 Q1468.67 1502.86 1468.1 1503.82 Q1467.56 1504.79 1466.08 1506.35 Q1464.59 1507.91 1463.39 1509.01 Q1462.2 1510.11 1459.52 1512.46 L1454.62 1517.22 L1462.94 1517.22 Q1467 1517.22 1467.32 1516.86 Q1467.77 1516.2 1468.33 1512.75 L1469.5 1512.75 L1468.19 1520.78 L1451.06 1520.78 Z" fill="#000000" fill-rule="nonzero" fill-opacity="1"></path><polyline clip-path="url(#clip192)" style="stroke:#000000; stroke-linecap:round; stroke-linejoin:round; stroke-width:2; stroke-opacity:0.1; fill:none" points="370.302,1349.08 2352.76,1349.08 "></polyline>
<polyline clip-path="url(#clip192)" style="stroke:#000000; stroke-linecap:round; stroke-linejoin:round; stroke-width:2; stroke-opacity:0.1; fill:none" points="370.302,1042.1 2352.76,1042.1 "></polyline>
<polyline clip-path="url(#clip192)" style="stroke:#000000; stroke-linecap:round; stroke-linejoin:round; stroke-width:2; stroke-opacity:0.1; fill:none" points="370.302,735.127 2352.76,735.127 "></polyline>
<polyline clip-path="url(#clip192)" style="stroke:#000000; stroke-linecap:round; stroke-linejoin:round; stroke-width:2; stroke-opacity:0.1; fill:none" points="370.302,428.151 2352.76,428.151 "></polyline>
<polyline clip-path="url(#clip192)" style="stroke:#000000; stroke-linecap:round; stroke-linejoin:round; stroke-width:2; stroke-opacity:0.1; fill:none" points="370.302,121.175 2352.76,121.175 "></polyline>
<polyline clip-path="url(#clip190)" style="stroke:#000000; stroke-linecap:round; stroke-linejoin:round; stroke-width:4; stroke-opacity:1; fill:none" points="370.302,1411.38 370.302,47.2441 "></polyline>
<polyline clip-path="url(#clip190)" style="stroke:#000000; stroke-linecap:round; stroke-linejoin:round; stroke-width:4; stroke-opacity:1; fill:none" points="370.302,1349.08 389.2,1349.08 "></polyline>
<polyline clip-path="url(#clip190)" style="stroke:#000000; stroke-linecap:round; stroke-linejoin:round; stroke-width:4; stroke-opacity:1; fill:none" points="370.302,1042.1 389.2,1042.1 "></polyline>
<polyline clip-path="url(#clip190)" style="stroke:#000000; stroke-linecap:round; stroke-linejoin:round; stroke-width:4; stroke-opacity:1; fill:none" points="370.302,735.127 389.2,735.127 "></polyline>
<polyline clip-path="url(#clip190)" style="stroke:#000000; stroke-linecap:round; stroke-linejoin:round; stroke-width:4; stroke-opacity:1; fill:none" points="370.302,428.151 389.2,428.151 "></polyline>
<polyline clip-path="url(#clip190)" style="stroke:#000000; stroke-linecap:round; stroke-linejoin:round; stroke-width:4; stroke-opacity:1; fill:none" points="370.302,121.175 389.2,121.175 "></polyline>
<path clip-path="url(#clip190)" d="M322.358 1334.88 Q318.747 1334.88 316.918 1338.44 Q315.113 1341.98 315.113 1349.11 Q315.113 1356.22 316.918 1359.78 Q318.747 1363.33 322.358 1363.33 Q325.992 1363.33 327.798 1359.78 Q329.626 1356.22 329.626 1349.11 Q329.626 1341.98 327.798 1338.44 Q325.992 1334.88 322.358 1334.88 M322.358 1331.17 Q328.168 1331.17 331.224 1335.78 Q334.302 1340.36 334.302 1349.11 Q334.302 1357.84 331.224 1362.45 Q328.168 1367.03 322.358 1367.03 Q316.548 1367.03 313.469 1362.45 Q310.414 1357.84 310.414 1349.11 Q310.414 1340.36 313.469 1335.78 Q316.548 1331.17 322.358 1331.17 Z" fill="#000000" fill-rule="nonzero" fill-opacity="1"></path><path clip-path="url(#clip190)" d="M117.825 1061.9 L125.464 1061.9 L125.464 1035.53 L117.154 1037.2 L117.154 1032.94 L125.418 1031.27 L130.093 1031.27 L130.093 1061.9 L137.732 1061.9 L137.732 1065.83 L117.825 1065.83 L117.825 1061.9 Z" fill="#000000" fill-rule="nonzero" fill-opacity="1"></path><path clip-path="url(#clip190)" d="M147.177 1059.95 L152.061 1059.95 L152.061 1065.83 L147.177 1065.83 L147.177 1059.95 Z" fill="#000000" fill-rule="nonzero" fill-opacity="1"></path><path clip-path="url(#clip190)" d="M172.246 1034.35 Q168.635 1034.35 166.806 1037.91 Q165.001 1041.46 165.001 1048.59 Q165.001 1055.69 166.806 1059.26 Q168.635 1062.8 172.246 1062.8 Q175.88 1062.8 177.686 1059.26 Q179.514 1055.69 179.514 1048.59 Q179.514 1041.46 177.686 1037.91 Q175.88 1034.35 172.246 1034.35 M172.246 1030.65 Q178.056 1030.65 181.112 1035.25 Q184.19 1039.84 184.19 1048.59 Q184.19 1057.31 181.112 1061.92 Q178.056 1066.5 172.246 1066.5 Q166.436 1066.5 163.357 1061.92 Q160.302 1057.31 160.302 1048.59 Q160.302 1039.84 163.357 1035.25 Q166.436 1030.65 172.246 1030.65 Z" fill="#000000" fill-rule="nonzero" fill-opacity="1"></path><path clip-path="url(#clip190)" d="M220.579 1040.37 L210 1050.99 L220.579 1061.57 L217.824 1064.37 L207.199 1053.75 L196.575 1064.37 L193.843 1061.57 L204.399 1050.99 L193.843 1040.37 L196.575 1037.57 L207.199 1048.19 L217.824 1037.57 L220.579 1040.37 Z" fill="#000000" fill-rule="nonzero" fill-opacity="1"></path><path clip-path="url(#clip190)" d="M232.94 1061.9 L240.579 1061.9 L240.579 1035.53 L232.269 1037.2 L232.269 1032.94 L240.533 1031.27 L245.209 1031.27 L245.209 1061.9 L252.847 1061.9 L252.847 1065.83 L232.94 1065.83 L232.94 1061.9 Z" fill="#000000" fill-rule="nonzero" fill-opacity="1"></path><path clip-path="url(#clip190)" d="M272.292 1034.35 Q268.681 1034.35 266.852 1037.91 Q265.046 1041.46 265.046 1048.59 Q265.046 1055.69 266.852 1059.26 Q268.681 1062.8 272.292 1062.8 Q275.926 1062.8 277.732 1059.26 Q279.56 1055.69 279.56 1048.59 Q279.56 1041.46 277.732 1037.91 Q275.926 1034.35 272.292 1034.35 M272.292 1030.65 Q278.102 1030.65 281.157 1035.25 Q284.236 1039.84 284.236 1048.59 Q284.236 1057.31 281.157 1061.92 Q278.102 1066.5 272.292 1066.5 Q266.482 1066.5 263.403 1061.92 Q260.347 1057.31 260.347 1048.59 Q260.347 1039.84 263.403 1035.25 Q266.482 1030.65 272.292 1030.65 Z" fill="#000000" fill-rule="nonzero" fill-opacity="1"></path><path clip-path="url(#clip190)" d="M284.236 1024.75 L308.348 1024.75 L308.348 1027.94 L284.236 1027.94 L284.236 1024.75 Z" fill="#000000" fill-rule="nonzero" fill-opacity="1"></path><path clip-path="url(#clip190)" d="M324.673 1025.09 Q321.964 1025.09 320.403 1026.53 Q318.861 1027.98 318.861 1030.52 Q318.861 1033.06 320.403 1034.51 Q321.964 1035.96 324.673 1035.96 Q327.381 1035.96 328.942 1034.51 Q330.503 1033.04 330.503 1030.52 Q330.503 1027.98 328.942 1026.53 Q327.4 1025.09 324.673 1025.09 M320.874 1023.47 Q318.429 1022.87 317.056 1021.19 Q315.701 1019.52 315.701 1017.11 Q315.701 1013.74 318.09 1011.79 Q320.497 1009.83 324.673 1009.83 Q328.867 1009.83 331.256 1011.79 Q333.644 1013.74 333.644 1017.11 Q333.644 1019.52 332.271 1021.19 Q330.917 1022.87 328.491 1023.47 Q331.237 1024.11 332.76 1025.97 Q334.302 1027.83 334.302 1030.52 Q334.302 1034.6 331.801 1036.78 Q329.318 1038.97 324.673 1038.97 Q320.027 1038.97 317.526 1036.78 Q315.043 1034.6 315.043 1030.52 Q315.043 1027.83 316.585 1025.97 Q318.128 1024.11 320.874 1023.47 M319.482 1017.47 Q319.482 1019.65 320.836 1020.87 Q322.209 1022.09 324.673 1022.09 Q327.118 1022.09 328.491 1020.87 Q329.883 1019.65 329.883 1017.47 Q329.883 1015.29 328.491 1014.06 Q327.118 1012.84 324.673 1012.84 Q322.209 1012.84 320.836 1014.06 Q319.482 1015.29 319.482 1017.47 Z" fill="#000000" fill-rule="nonzero" fill-opacity="1"></path><path clip-path="url(#clip190)" d="M121.043 754.919 L137.362 754.919 L137.362 758.854 L115.418 758.854 L115.418 754.919 Q118.08 752.165 122.663 747.535 Q127.269 742.882 128.45 741.54 Q130.695 739.016 131.575 737.28 Q132.478 735.521 132.478 733.831 Q132.478 731.077 130.533 729.341 Q128.612 727.604 125.51 727.604 Q123.311 727.604 120.857 728.368 Q118.427 729.132 115.649 730.683 L115.649 725.961 Q118.473 724.827 120.927 724.248 Q123.38 723.669 125.418 723.669 Q130.788 723.669 133.982 726.355 Q137.177 729.04 137.177 733.53 Q137.177 735.66 136.367 737.581 Q135.579 739.479 133.473 742.072 Q132.894 742.743 129.792 745.961 Q126.691 749.155 121.043 754.919 Z" fill="#000000" fill-rule="nonzero" fill-opacity="1"></path><path clip-path="url(#clip190)" d="M147.177 752.975 L152.061 752.975 L152.061 758.854 L147.177 758.854 L147.177 752.975 Z" fill="#000000" fill-rule="nonzero" fill-opacity="1"></path><path clip-path="url(#clip190)" d="M172.246 727.373 Q168.635 727.373 166.806 730.938 Q165.001 734.479 165.001 741.609 Q165.001 748.715 166.806 752.28 Q168.635 755.822 172.246 755.822 Q175.88 755.822 177.686 752.28 Q179.514 748.715 179.514 741.609 Q179.514 734.479 177.686 730.938 Q175.88 727.373 172.246 727.373 M172.246 723.669 Q178.056 723.669 181.112 728.276 Q184.19 732.859 184.19 741.609 Q184.19 750.336 181.112 754.942 Q178.056 759.526 172.246 759.526 Q166.436 759.526 163.357 754.942 Q160.302 750.336 160.302 741.609 Q160.302 732.859 163.357 728.276 Q166.436 723.669 172.246 723.669 Z" fill="#000000" fill-rule="nonzero" fill-opacity="1"></path><path clip-path="url(#clip190)" d="M220.579 733.392 L210 744.016 L220.579 754.595 L217.824 757.396 L207.199 746.771 L196.575 757.396 L193.843 754.595 L204.399 744.016 L193.843 733.392 L196.575 730.591 L207.199 741.216 L217.824 730.591 L220.579 733.392 Z" fill="#000000" fill-rule="nonzero" fill-opacity="1"></path><path clip-path="url(#clip190)" d="M232.94 754.919 L240.579 754.919 L240.579 728.554 L232.269 730.22 L232.269 725.961 L240.533 724.294 L245.209 724.294 L245.209 754.919 L252.847 754.919 L252.847 758.854 L232.94 758.854 L232.94 754.919 Z" fill="#000000" fill-rule="nonzero" fill-opacity="1"></path><path clip-path="url(#clip190)" d="M272.292 727.373 Q268.681 727.373 266.852 730.938 Q265.046 734.479 265.046 741.609 Q265.046 748.715 266.852 752.28 Q268.681 755.822 272.292 755.822 Q275.926 755.822 277.732 752.28 Q279.56 748.715 279.56 741.609 Q279.56 734.479 277.732 730.938 Q275.926 727.373 272.292 727.373 M272.292 723.669 Q278.102 723.669 281.157 728.276 Q284.236 732.859 284.236 741.609 Q284.236 750.336 281.157 754.942 Q278.102 759.526 272.292 759.526 Q266.482 759.526 263.403 754.942 Q260.347 750.336 260.347 741.609 Q260.347 732.859 263.403 728.276 Q266.482 723.669 272.292 723.669 Z" fill="#000000" fill-rule="nonzero" fill-opacity="1"></path><path clip-path="url(#clip190)" d="M284.236 717.771 L308.348 717.771 L308.348 720.968 L284.236 720.968 L284.236 717.771 Z" fill="#000000" fill-rule="nonzero" fill-opacity="1"></path><path clip-path="url(#clip190)" d="M324.673 718.109 Q321.964 718.109 320.403 719.557 Q318.861 721.006 318.861 723.545 Q318.861 726.084 320.403 727.532 Q321.964 728.98 324.673 728.98 Q327.381 728.98 328.942 727.532 Q330.503 726.065 330.503 723.545 Q330.503 721.006 328.942 719.557 Q327.4 718.109 324.673 718.109 M320.874 716.492 Q318.429 715.89 317.056 714.216 Q315.701 712.542 315.701 710.135 Q315.701 706.768 318.09 704.812 Q320.497 702.856 324.673 702.856 Q328.867 702.856 331.256 704.812 Q333.644 706.768 333.644 710.135 Q333.644 712.542 332.271 714.216 Q330.917 715.89 328.491 716.492 Q331.237 717.131 332.76 718.993 Q334.302 720.855 334.302 723.545 Q334.302 727.626 331.801 729.808 Q329.318 731.989 324.673 731.989 Q320.027 731.989 317.526 729.808 Q315.043 727.626 315.043 723.545 Q315.043 720.855 316.585 718.993 Q318.128 717.131 320.874 716.492 M319.482 710.492 Q319.482 712.674 320.836 713.896 Q322.209 715.119 324.673 715.119 Q327.118 715.119 328.491 713.896 Q329.883 712.674 329.883 710.492 Q329.883 708.31 328.491 707.088 Q327.118 705.865 324.673 705.865 Q322.209 705.865 320.836 707.088 Q319.482 708.31 319.482 710.492 Z" fill="#000000" fill-rule="nonzero" fill-opacity="1"></path><path clip-path="url(#clip190)" d="M131.181 433.244 Q134.538 433.962 136.413 436.23 Q138.311 438.499 138.311 441.832 Q138.311 446.948 134.792 449.749 Q131.274 452.55 124.793 452.55 Q122.617 452.55 120.302 452.11 Q118.01 451.693 115.556 450.837 L115.556 446.323 Q117.501 447.457 119.816 448.036 Q122.13 448.614 124.654 448.614 Q129.052 448.614 131.343 446.878 Q133.658 445.142 133.658 441.832 Q133.658 438.777 131.505 437.064 Q129.376 435.327 125.556 435.327 L121.529 435.327 L121.529 431.485 L125.742 431.485 Q129.191 431.485 131.019 430.119 Q132.848 428.73 132.848 426.138 Q132.848 423.476 130.95 422.064 Q129.075 420.628 125.556 420.628 Q123.635 420.628 121.436 421.045 Q119.237 421.462 116.598 422.341 L116.598 418.175 Q119.26 417.434 121.575 417.064 Q123.913 416.693 125.973 416.693 Q131.297 416.693 134.399 419.124 Q137.501 421.531 137.501 425.652 Q137.501 428.522 135.857 430.513 Q134.214 432.48 131.181 433.244 Z" fill="#000000" fill-rule="nonzero" fill-opacity="1"></path><path clip-path="url(#clip190)" d="M147.177 445.999 L152.061 445.999 L152.061 451.878 L147.177 451.878 L147.177 445.999 Z" fill="#000000" fill-rule="nonzero" fill-opacity="1"></path><path clip-path="url(#clip190)" d="M172.246 420.397 Q168.635 420.397 166.806 423.962 Q165.001 427.503 165.001 434.633 Q165.001 441.739 166.806 445.304 Q168.635 448.846 172.246 448.846 Q175.88 448.846 177.686 445.304 Q179.514 441.739 179.514 434.633 Q179.514 427.503 177.686 423.962 Q175.88 420.397 172.246 420.397 M172.246 416.693 Q178.056 416.693 181.112 421.3 Q184.19 425.883 184.19 434.633 Q184.19 443.36 181.112 447.966 Q178.056 452.55 172.246 452.55 Q166.436 452.55 163.357 447.966 Q160.302 443.36 160.302 434.633 Q160.302 425.883 163.357 421.3 Q166.436 416.693 172.246 416.693 Z" fill="#000000" fill-rule="nonzero" fill-opacity="1"></path><path clip-path="url(#clip190)" d="M220.579 426.415 L210 437.04 L220.579 447.619 L217.824 450.42 L207.199 439.795 L196.575 450.42 L193.843 447.619 L204.399 437.04 L193.843 426.415 L196.575 423.615 L207.199 434.24 L217.824 423.615 L220.579 426.415 Z" fill="#000000" fill-rule="nonzero" fill-opacity="1"></path><path clip-path="url(#clip190)" d="M232.94 447.943 L240.579 447.943 L240.579 421.578 L232.269 423.244 L232.269 418.985 L240.533 417.318 L245.209 417.318 L245.209 447.943 L252.847 447.943 L252.847 451.878 L232.94 451.878 L232.94 447.943 Z" fill="#000000" fill-rule="nonzero" fill-opacity="1"></path><path clip-path="url(#clip190)" d="M272.292 420.397 Q268.681 420.397 266.852 423.962 Q265.046 427.503 265.046 434.633 Q265.046 441.739 266.852 445.304 Q268.681 448.846 272.292 448.846 Q275.926 448.846 277.732 445.304 Q279.56 441.739 279.56 434.633 Q279.56 427.503 277.732 423.962 Q275.926 420.397 272.292 420.397 M272.292 416.693 Q278.102 416.693 281.157 421.3 Q284.236 425.883 284.236 434.633 Q284.236 443.36 281.157 447.966 Q278.102 452.55 272.292 452.55 Q266.482 452.55 263.403 447.966 Q260.347 443.36 260.347 434.633 Q260.347 425.883 263.403 421.3 Q266.482 416.693 272.292 416.693 Z" fill="#000000" fill-rule="nonzero" fill-opacity="1"></path><path clip-path="url(#clip190)" d="M284.236 410.795 L308.348 410.795 L308.348 413.992 L284.236 413.992 L284.236 410.795 Z" fill="#000000" fill-rule="nonzero" fill-opacity="1"></path><path clip-path="url(#clip190)" d="M324.673 411.133 Q321.964 411.133 320.403 412.581 Q318.861 414.03 318.861 416.569 Q318.861 419.108 320.403 420.556 Q321.964 422.004 324.673 422.004 Q327.381 422.004 328.942 420.556 Q330.503 419.089 330.503 416.569 Q330.503 414.03 328.942 412.581 Q327.4 411.133 324.673 411.133 M320.874 409.516 Q318.429 408.914 317.056 407.24 Q315.701 405.566 315.701 403.159 Q315.701 399.792 318.09 397.836 Q320.497 395.88 324.673 395.88 Q328.867 395.88 331.256 397.836 Q333.644 399.792 333.644 403.159 Q333.644 405.566 332.271 407.24 Q330.917 408.914 328.491 409.516 Q331.237 410.155 332.76 412.017 Q334.302 413.879 334.302 416.569 Q334.302 420.65 331.801 422.832 Q329.318 425.013 324.673 425.013 Q320.027 425.013 317.526 422.832 Q315.043 420.65 315.043 416.569 Q315.043 413.879 316.585 412.017 Q318.128 410.155 320.874 409.516 M319.482 403.516 Q319.482 405.698 320.836 406.92 Q322.209 408.143 324.673 408.143 Q327.118 408.143 328.491 406.92 Q329.883 405.698 329.883 403.516 Q329.883 401.334 328.491 400.112 Q327.118 398.889 324.673 398.889 Q322.209 398.889 320.836 400.112 Q319.482 401.334 319.482 403.516 Z" fill="#000000" fill-rule="nonzero" fill-opacity="1"></path><path clip-path="url(#clip190)" d="M129.862 114.416 L118.056 132.865 L129.862 132.865 L129.862 114.416 M128.635 110.342 L134.515 110.342 L134.515 132.865 L139.445 132.865 L139.445 136.754 L134.515 136.754 L134.515 144.902 L129.862 144.902 L129.862 136.754 L114.26 136.754 L114.26 132.24 L128.635 110.342 Z" fill="#000000" fill-rule="nonzero" fill-opacity="1"></path><path clip-path="url(#clip190)" d="M147.177 139.023 L152.061 139.023 L152.061 144.902 L147.177 144.902 L147.177 139.023 Z" fill="#000000" fill-rule="nonzero" fill-opacity="1"></path><path clip-path="url(#clip190)" d="M172.246 113.421 Q168.635 113.421 166.806 116.986 Q165.001 120.527 165.001 127.657 Q165.001 134.763 166.806 138.328 Q168.635 141.87 172.246 141.87 Q175.88 141.87 177.686 138.328 Q179.514 134.763 179.514 127.657 Q179.514 120.527 177.686 116.986 Q175.88 113.421 172.246 113.421 M172.246 109.717 Q178.056 109.717 181.112 114.324 Q184.19 118.907 184.19 127.657 Q184.19 136.384 181.112 140.99 Q178.056 145.574 172.246 145.574 Q166.436 145.574 163.357 140.99 Q160.302 136.384 160.302 127.657 Q160.302 118.907 163.357 114.324 Q166.436 109.717 172.246 109.717 Z" fill="#000000" fill-rule="nonzero" fill-opacity="1"></path><path clip-path="url(#clip190)" d="M220.579 119.439 L210 130.064 L220.579 140.643 L217.824 143.444 L207.199 132.819 L196.575 143.444 L193.843 140.643 L204.399 130.064 L193.843 119.439 L196.575 116.639 L207.199 127.264 L217.824 116.639 L220.579 119.439 Z" fill="#000000" fill-rule="nonzero" fill-opacity="1"></path><path clip-path="url(#clip190)" d="M232.94 140.967 L240.579 140.967 L240.579 114.602 L232.269 116.268 L232.269 112.009 L240.533 110.342 L245.209 110.342 L245.209 140.967 L252.847 140.967 L252.847 144.902 L232.94 144.902 L232.94 140.967 Z" fill="#000000" fill-rule="nonzero" fill-opacity="1"></path><path clip-path="url(#clip190)" d="M272.292 113.421 Q268.681 113.421 266.852 116.986 Q265.046 120.527 265.046 127.657 Q265.046 134.763 266.852 138.328 Q268.681 141.87 272.292 141.87 Q275.926 141.87 277.732 138.328 Q279.56 134.763 279.56 127.657 Q279.56 120.527 277.732 116.986 Q275.926 113.421 272.292 113.421 M272.292 109.717 Q278.102 109.717 281.157 114.324 Q284.236 118.907 284.236 127.657 Q284.236 136.384 281.157 140.99 Q278.102 145.574 272.292 145.574 Q266.482 145.574 263.403 140.99 Q260.347 136.384 260.347 127.657 Q260.347 118.907 263.403 114.324 Q266.482 109.717 272.292 109.717 Z" fill="#000000" fill-rule="nonzero" fill-opacity="1"></path><path clip-path="url(#clip190)" d="M284.236 103.819 L308.348 103.819 L308.348 107.016 L284.236 107.016 L284.236 103.819 Z" fill="#000000" fill-rule="nonzero" fill-opacity="1"></path><path clip-path="url(#clip190)" d="M324.673 104.157 Q321.964 104.157 320.403 105.605 Q318.861 107.054 318.861 109.593 Q318.861 112.132 320.403 113.58 Q321.964 115.028 324.673 115.028 Q327.381 115.028 328.942 113.58 Q330.503 112.113 330.503 109.593 Q330.503 107.054 328.942 105.605 Q327.4 104.157 324.673 104.157 M320.874 102.54 Q318.429 101.938 317.056 100.264 Q315.701 98.5901 315.701 96.1827 Q315.701 92.8161 318.09 90.8601 Q320.497 88.9041 324.673 88.9041 Q328.867 88.9041 331.256 90.8601 Q333.644 92.8161 333.644 96.1827 Q333.644 98.5901 332.271 100.264 Q330.917 101.938 328.491 102.54 Q331.237 103.179 332.76 105.041 Q334.302 106.903 334.302 109.593 Q334.302 113.674 331.801 115.856 Q329.318 118.037 324.673 118.037 Q320.027 118.037 317.526 115.856 Q315.043 113.674 315.043 109.593 Q315.043 106.903 316.585 105.041 Q318.128 103.179 320.874 102.54 M319.482 96.5401 Q319.482 98.7218 320.836 99.9443 Q322.209 101.167 324.673 101.167 Q327.118 101.167 328.491 99.9443 Q329.883 98.7218 329.883 96.5401 Q329.883 94.3584 328.491 93.1359 Q327.118 91.9134 324.673 91.9134 Q322.209 91.9134 320.836 93.1359 Q319.482 94.3584 319.482 96.5401 Z" fill="#000000" fill-rule="nonzero" fill-opacity="1"></path><path clip-path="url(#clip190)" d="M47.6945 818.645 Q52.461 818.645 56.9376 821.092 Q61.4142 823.508 64.1195 827.308 Q66.8248 831.076 66.8248 834.876 Q66.8248 839.16 62.3804 841.382 Q78.5156 845.408 78.9342 845.633 Q80.3191 846.567 80.3191 847.92 Q80.3191 848.757 79.8038 849.272 Q79.3207 849.788 78.5478 849.788 Q78.2901 849.756 77.485 849.562 L51.5593 843.121 Q45.5368 841.64 41.2534 837.163 Q36.9378 832.654 36.9378 827.823 Q36.9378 823.991 39.8041 821.318 Q42.6704 818.645 47.6945 818.645 M44.8604 823.379 Q41.6398 823.379 40.0296 824.667 Q38.3871 825.955 38.3871 827.952 Q38.3871 829.788 39.8685 832.01 Q41.35 834.2 44.635 836.132 Q46.5351 837.163 48.8862 837.904 Q51.2372 838.645 57.0342 840.094 Q59.3531 840.609 59.4819 840.609 Q59.7395 840.609 60.3192 840.48 Q60.899 840.319 61.8007 839.933 Q62.6703 839.514 63.4432 838.934 Q64.2162 838.355 64.7959 837.292 Q65.3434 836.229 65.3434 834.941 Q65.3434 832.944 63.7331 830.818 Q62.0906 828.661 59.0954 827.083 Q56.68 825.762 52.139 824.571 Q47.5657 823.379 44.8604 823.379 Z" fill="#000000" fill-rule="nonzero" fill-opacity="1"></path><path clip-path="url(#clip190)" d="M49.5947 811.815 Q38.4515 811.815 29.466 807.661 Q25.6979 805.889 22.5418 803.409 Q19.3856 800.93 18.0007 799.287 Q16.6159 797.645 16.6159 797.194 Q16.6159 796.55 17.26 796.517 Q17.5821 796.517 18.3872 797.387 Q29.2084 808.015 49.5947 807.983 Q70.0454 807.983 80.4479 797.645 Q81.5751 796.517 81.9294 796.517 Q82.5735 796.517 82.5735 797.194 Q82.5735 797.645 81.2531 799.223 Q79.9326 800.801 76.9053 803.248 Q73.8779 805.696 70.1742 807.467 Q61.1888 811.815 49.5947 811.815 Z" fill="#000000" fill-rule="nonzero" fill-opacity="1"></path><path clip-path="url(#clip190)" d="M55.3917 790.448 L55.3917 788.805 Q59.8684 787.871 60.5447 787.42 Q61.6719 786.776 61.8007 783.974 Q61.8007 783.395 61.8007 782.396 L61.8007 777.984 Q58.7734 778.789 55.2951 780.818 Q51.7847 782.847 49.176 784.779 Q46.5673 786.68 43.0247 788.193 Q39.4498 789.707 36.0682 789.707 Q29.3372 789.707 24.4741 783.91 Q19.5788 778.113 19.5788 769.611 Q19.5788 761.108 24.4419 755.279 Q29.2728 749.417 36.0682 749.417 Q39.4176 749.417 42.9603 750.931 Q46.5029 752.445 49.1116 754.345 Q51.7203 756.213 55.2629 758.306 Q58.7734 760.367 61.8007 761.173 L61.8007 756.664 Q61.8007 752.96 61.1244 752.219 Q60.4159 751.479 56.7122 750.673 Q55.8426 750.545 55.3917 750.416 L55.3917 748.709 L66.0841 750.867 L66.0841 761.43 Q66.0841 762.3 65.8264 762.686 Q65.5688 763.073 64.6348 763.073 Q60.1582 763.073 50.5287 759.659 Q40.8991 756.213 36.0682 756.213 Q28.8863 756.213 24.9572 760.303 Q21.0281 764.393 21.0281 769.611 Q21.0281 774.763 24.925 778.854 Q28.8219 782.912 36.0682 782.912 Q40.9635 782.912 50.5609 779.498 Q60.1582 776.052 64.5704 776.052 Q65.6332 776.052 65.8587 776.47 Q66.0841 776.857 66.0841 778.177 L66.0841 788.258 L55.3917 790.448 Z" fill="#000000" fill-rule="nonzero" fill-opacity="1"></path><path clip-path="url(#clip190)" d="M47.147 719.041 Q48.1776 718.01 49.5947 718.01 Q51.0118 718.01 52.0745 719.041 Q53.1051 720.072 53.1051 721.489 Q53.1051 722.906 52.0745 723.969 Q51.0118 724.999 49.5947 724.999 Q48.1776 724.999 47.147 723.969 Q46.0843 722.906 46.0843 721.489 Q46.0843 720.072 47.147 719.041 Z" fill="#000000" fill-rule="nonzero" fill-opacity="1"></path><path clip-path="url(#clip190)" d="M66.0841 688.546 L64.0551 688.546 Q64.0551 685.036 63.6364 684.231 Q63.1856 683.426 61.06 683.426 L43.379 683.426 Q40.9313 683.426 40.3194 684.295 Q39.7075 685.132 39.7075 688.546 L37.6463 688.546 L36.9378 679.271 L43.8621 679.271 Q36.9378 676.179 36.9378 669.513 Q36.9378 661.783 43.379 660.72 Q40.8669 659.593 38.9023 657.242 Q36.9378 654.859 36.9378 651.155 Q36.9378 646.196 39.3854 644.231 Q41.0279 642.782 42.8637 642.492 Q44.6994 642.202 49.4659 642.202 L62.0584 642.202 Q63.4432 642.138 63.7653 641.075 Q64.0551 640.012 64.0551 637.049 L66.0841 637.049 Q65.8909 643.78 65.8909 644.424 Q65.8909 644.94 66.0841 651.896 L64.0551 651.896 Q64.0551 648.386 63.6364 647.58 Q63.1856 646.743 61.06 646.743 L45.6978 646.743 Q42.3484 646.743 40.3838 647.774 Q38.3871 648.804 38.3871 651.638 Q38.3871 655.052 41.2534 657.79 Q44.1197 660.527 48.9506 660.527 L61.06 660.527 Q63.1856 660.527 63.6364 659.722 Q64.0551 658.885 64.0551 655.374 L66.0841 655.374 Q65.8909 662.105 65.8909 662.782 Q65.8909 663.297 66.0841 670.221 L64.0551 670.221 Q64.0551 666.711 63.6364 665.906 Q63.1856 665.068 61.06 665.068 L45.6978 665.068 Q42.3484 665.068 40.3838 666.099 Q38.3871 667.129 38.3871 669.963 Q38.3871 673.377 41.2534 676.115 Q44.1197 678.852 48.9506 678.852 L61.06 678.852 Q63.1856 678.852 63.6364 678.047 Q64.0551 677.21 64.0551 673.732 L66.0841 673.732 Q65.8909 680.463 65.8909 681.107 Q65.8909 681.622 66.0841 688.546 Z" fill="#000000" fill-rule="nonzero" fill-opacity="1"></path><path clip-path="url(#clip190)" d="M81.9294 634.159 Q81.6073 634.159 80.8022 633.322 Q69.981 622.694 49.5947 622.694 Q29.144 622.694 18.8059 632.903 Q17.6143 634.159 17.26 634.159 Q16.6159 634.159 16.6159 633.515 Q16.6159 633.064 17.9363 631.486 Q19.2568 629.876 22.2841 627.461 Q25.3115 625.013 29.0151 623.209 Q38.0006 618.862 49.5947 618.862 Q60.7379 618.862 69.7234 623.016 Q73.4914 624.787 76.6476 627.267 Q79.8038 629.747 81.1886 631.39 Q82.5735 633.032 82.5735 633.515 Q82.5735 634.159 81.9294 634.159 Z" fill="#000000" fill-rule="nonzero" fill-opacity="1"></path><circle clip-path="url(#clip192)" cx="426.41" cy="1347.35" r="14.4" fill="#009af9" fill-rule="evenodd" fill-opacity="1" stroke="#000000" stroke-opacity="1" stroke-width="3.2"></circle>
<circle clip-path="url(#clip192)" cx="551.092" cy="1340.4" r="14.4" fill="#009af9" fill-rule="evenodd" fill-opacity="1" stroke="#000000" stroke-opacity="1" stroke-width="3.2"></circle>
<circle clip-path="url(#clip192)" cx="800.457" cy="1303.87" r="14.4" fill="#009af9" fill-rule="evenodd" fill-opacity="1" stroke="#000000" stroke-opacity="1" stroke-width="3.2"></circle>
<circle clip-path="url(#clip192)" cx="1299.19" cy="1106.81" r="14.4" fill="#009af9" fill-rule="evenodd" fill-opacity="1" stroke="#000000" stroke-opacity="1" stroke-width="3.2"></circle>
<circle clip-path="url(#clip192)" cx="2296.65" cy="85.8516" r="14.4" fill="#009af9" fill-rule="evenodd" fill-opacity="1" stroke="#000000" stroke-opacity="1" stroke-width="3.2"></circle>
<polyline clip-path="url(#clip192)" style="stroke:#e26f46; stroke-linecap:round; stroke-linejoin:round; stroke-width:4; stroke-opacity:1; fill:none" points="426.41,1372.77 445.301,1371.14 464.192,1369.28 483.083,1367.19 501.975,1364.87 520.866,1362.33 539.757,1359.55 558.649,1356.54 577.54,1353.31 596.431,1349.84 615.323,1346.15 634.214,1342.22 653.105,1338.07 671.997,1333.68 690.888,1329.07 709.779,1324.23 728.67,1319.15 747.562,1313.85 766.453,1308.32 785.344,1302.56 804.236,1296.57 823.127,1290.35 842.018,1283.9 860.91,1277.22 879.801,1270.32 898.692,1263.18 917.583,1255.81 936.475,1248.21 955.366,1240.39 974.257,1232.33 993.149,1224.05 1012.04,1215.53 1030.93,1206.79 1049.82,1197.81 1068.71,1188.61 1087.61,1179.18 1106.5,1169.52 1125.39,1159.62 1144.28,1149.5 1163.17,1139.15 1182.06,1128.57 1200.95,1117.76 1219.84,1106.72 1238.74,1095.45 1257.63,1083.95 1276.52,1072.23 1295.41,1060.27 1314.3,1048.08 1333.19,1035.67 1352.08,1023.02 1370.97,1010.14 1389.87,997.04 1408.76,983.705 1427.65,970.141 1446.54,956.348 1465.43,942.325 1484.32,928.073 1503.21,913.591 1522.11,898.879 1541,883.938 1559.89,868.768 1578.78,853.368 1597.67,837.738 1616.56,821.879 1635.45,805.79 1654.34,789.472 1673.24,772.925 1692.13,756.148 1711.02,739.141 1729.91,721.905 1748.8,704.44 1767.69,686.744 1786.58,668.82 1805.47,650.666 1824.37,632.282 1843.26,613.669 1862.15,594.826 1881.04,575.754 1899.93,556.452 1918.82,536.921 1937.71,517.161 1956.61,497.17 1975.5,476.951 1994.39,456.502 2013.28,435.823 2032.17,414.915 2051.06,393.777 2069.95,372.41 2088.84,350.813 2107.74,328.987 2126.63,306.931 2145.52,284.646 2164.41,262.131 2183.3,239.387 2202.19,216.413 2221.08,193.209 2239.97,169.777 2258.87,146.114 2277.76,122.223 2296.65,98.1012 "></polyline>
<path clip-path="url(#clip190)" d="M436.384 248.235 L687.06 248.235 L687.06 92.7151 L436.384 92.7151  Z" fill="#ffffff" fill-rule="evenodd" fill-opacity="1"></path>
<polyline clip-path="url(#clip190)" style="stroke:#000000; stroke-linecap:round; stroke-linejoin:round; stroke-width:4; stroke-opacity:1; fill:none" points="436.384,248.235 687.06,248.235 687.06,92.7151 436.384,92.7151 436.384,248.235 "></polyline>
<circle clip-path="url(#clip190)" cx="524.493" cy="144.555" r="20.48" fill="#009af9" fill-rule="evenodd" fill-opacity="1" stroke="#000000" stroke-opacity="1" stroke-width="4.55111"></circle>
<path clip-path="url(#clip190)" d="M626.445 164.243 Q624.639 168.872 622.926 170.284 Q621.213 171.696 618.343 171.696 L614.94 171.696 L614.94 168.131 L617.44 168.131 Q619.199 168.131 620.172 167.298 Q621.144 166.465 622.324 163.363 L623.088 161.418 L612.602 135.909 L617.116 135.909 L625.218 156.187 L633.32 135.909 L637.834 135.909 L626.445 164.243 Z" fill="#000000" fill-rule="nonzero" fill-opacity="1"></path><path clip-path="url(#clip190)" d="M645.125 157.9 L652.764 157.9 L652.764 131.534 L644.454 133.201 L644.454 128.942 L652.718 127.275 L657.394 127.275 L657.394 157.9 L665.033 157.9 L665.033 161.835 L645.125 161.835 L645.125 157.9 Z" fill="#000000" fill-rule="nonzero" fill-opacity="1"></path><polyline clip-path="url(#clip190)" style="stroke:#e26f46; stroke-linecap:round; stroke-linejoin:round; stroke-width:4; stroke-opacity:1; fill:none" points="458.411,196.395 590.575,196.395 "></polyline>
<path clip-path="url(#clip190)" d="M626.445 216.083 Q624.639 220.712 622.926 222.124 Q621.213 223.536 618.343 223.536 L614.94 223.536 L614.94 219.971 L617.44 219.971 Q619.199 219.971 620.172 219.138 Q621.144 218.305 622.324 215.203 L623.088 213.258 L612.602 187.749 L617.116 187.749 L625.218 208.027 L633.32 187.749 L637.834 187.749 L626.445 216.083 Z" fill="#000000" fill-rule="nonzero" fill-opacity="1"></path><path clip-path="url(#clip190)" d="M648.343 209.74 L664.662 209.74 L664.662 213.675 L642.718 213.675 L642.718 209.74 Q645.38 206.985 649.963 202.356 Q654.57 197.703 655.75 196.36 Q657.996 193.837 658.875 192.101 Q659.778 190.342 659.778 188.652 Q659.778 185.898 657.833 184.161 Q655.912 182.425 652.81 182.425 Q650.611 182.425 648.158 183.189 Q645.727 183.953 642.949 185.504 L642.949 180.782 Q645.773 179.648 648.227 179.069 Q650.681 178.49 652.718 178.49 Q658.088 178.49 661.283 181.175 Q664.477 183.86 664.477 188.351 Q664.477 190.481 663.667 192.402 Q662.88 194.3 660.773 196.893 Q660.195 197.564 657.093 200.782 Q653.991 203.976 648.343 209.74 Z" fill="#000000" fill-rule="nonzero" fill-opacity="1"></path></svg>